<?xml version="1.0" encoding="UTF-8"?>
<svg version="1.1" xmlns="http://www.w3.org/2000/svg" width="1080" height="1080">
<path d="M0 0 C1.69502621 -0.00874829 1.69502621 -0.00874829 3.42429537 -0.01767331 C5.28686687 -0.01200433 5.28686687 -0.01200433 7.18706608 -0.00622082 C8.50594336 -0.01004636 9.82482064 -0.01387191 11.1836639 -0.01781338 C14.84771157 -0.02812195 18.5116617 -0.02590433 22.17571747 -0.02163279 C26.1260291 -0.01917075 30.07631693 -0.02817321 34.02661991 -0.03567028 C41.76683679 -0.04843374 49.50701901 -0.05020893 57.24724465 -0.04787002 C63.53715674 -0.04608858 69.82705828 -0.04783275 76.11696911 -0.05209446 C77.01142521 -0.05268965 77.90588132 -0.05328484 78.82744216 -0.05389806 C80.64439837 -0.05510979 82.46135458 -0.05632392 84.27831078 -0.05754044 C101.32598039 -0.06842227 118.37363023 -0.06625041 135.42130096 -0.06015559 C151.02465535 -0.05498553 166.62794733 -0.0662431 182.23128938 -0.08525381 C198.2448518 -0.10461509 214.25838468 -0.11289124 230.27195889 -0.10913056 C239.26555755 -0.10721596 248.25910309 -0.10973129 257.25269222 -0.1238451 C264.90874072 -0.13573808 272.56470338 -0.13718725 280.22075301 -0.12505493 C284.1281952 -0.11915162 288.03548022 -0.11810669 291.9429121 -0.13005733 C295.51874904 -0.14086688 299.09429665 -0.13787206 302.67011977 -0.12379565 C304.57898233 -0.11987299 306.4878575 -0.13073596 308.39669031 -0.14209253 C309.52931553 -0.13488598 310.66194075 -0.12767944 311.82888794 -0.12025452 C313.2945836 -0.12033704 313.2945836 -0.12033704 314.78988928 -0.12042123 C319.25033814 0.50180147 321.80320728 2.48668538 324.72736454 5.81697559 C327.7684407 10.05276024 327.62146693 13.32883715 327.61323643 18.40016747 C327.61577905 19.25649264 327.61832167 20.11281782 327.62094134 20.99509224 C327.62832461 23.89606337 327.62853785 26.79699239 327.6288538 29.6979723 C327.63270057 31.78613553 327.63698745 33.874298 327.64167929 35.9624595 C327.65335999 41.72520602 327.658813 47.48794461 327.6633141 53.25070059 C327.66924733 59.45592915 327.68091873 65.66114708 327.69194889 71.86636829 C327.71032511 82.62574571 327.72517932 93.38512198 327.73772526 104.14450741 C327.75592629 119.70203552 327.78063395 135.25954845 327.80709916 150.81706446 C327.81940968 158.05890118 327.83140065 165.30073844 327.84330845 172.54257584 C327.84450097 173.26759701 327.8456935 173.99261818 327.84692216 174.73960969 C327.87524682 192.00538526 327.90044221 209.27116518 327.92511845 226.5369463 C327.92674024 227.6704871 327.92674024 227.6704871 327.9283948 228.82692772 C327.94593804 241.0916255 327.96329173 253.35632355 327.98061979 265.62102163 C327.99686042 277.11480654 328.01316939 288.60859136 328.02961063 300.10237598 C328.03122983 301.23554525 328.03122983 301.23554525 328.03288174 302.39160682 C328.0575291 319.62879658 328.08306768 336.86598439 328.11142063 354.10316849 C328.11320601 355.18892031 328.11320601 355.18892031 328.11502745 356.29660652 C328.12692829 363.52147513 328.13898588 370.74634346 328.15127766 377.97121142 C328.17768636 393.51413179 328.20133158 409.0570495 328.21945105 424.59998188 C328.23269755 435.9272997 328.24940223 447.25460687 328.26954615 458.58191497 C328.28034187 464.72468636 328.28944655 470.86744891 328.29424191 477.01022816 C328.29864919 482.62378 328.30756017 488.23730523 328.32018512 493.85084444 C328.32394583 495.89116333 328.32598336 497.93148621 328.32620531 499.97180856 C328.32674017 502.72611239 328.33330064 505.48033481 328.34149265 508.23462486 C328.34018414 509.04322495 328.33887562 509.85182503 328.33752745 510.68492815 C328.02060249 514.26602193 328.02060249 514.26602193 329.47736454 517.25447559 C332.04758297 517.35541785 334.59034486 517.39418796 337.16095829 517.38728809 C338.31701321 517.38872318 338.31701321 517.38872318 339.49642277 517.39018726 C341.12980067 517.39086908 342.76318127 517.38901468 344.39655399 517.38484669 C346.90076626 517.37950566 349.40479857 517.38478783 351.90900517 517.39119434 C353.49298994 517.39053342 355.0769746 517.38925196 356.66095829 517.38728809 C357.41308094 517.38931232 358.16520359 517.39133656 358.94011784 517.39342213 C362.83668453 517.45143924 362.83668453 517.45143924 366.47736454 516.25447559 C366.47872107 515.17934564 366.4800776 514.10421569 366.48147523 512.99650604 C366.54137425 465.62657009 366.60373377 418.25663822 366.678689 370.88672352 C366.67982263 370.16985739 366.68095625 369.45299127 366.68212423 368.71440193 C366.70677418 353.13594278 366.73186699 337.55748437 366.75741615 321.97902666 C366.76994229 314.33964194 366.78237054 306.70025705 366.79474735 299.06087208 C366.79598068 298.30065094 366.797214 297.54042981 366.7984847 296.75717167 C366.83843308 272.10470537 366.87191446 247.45223544 366.90205145 222.79975536 C366.9330485 197.47161542 366.97055136 172.14349329 367.01627066 146.81537545 C367.02272131 143.24008484 367.02909738 139.66479411 367.03542805 136.08950329 C367.03667635 135.38581681 367.03792466 134.68213033 367.03921079 133.95712002 C367.0591341 122.61786604 367.07217466 111.27861402 367.08265782 99.93934782 C367.09333658 88.54673296 367.11138861 77.15415265 367.13653158 65.76155875 C367.14994353 59.5858938 367.16006873 53.41026797 367.16157818 47.23458767 C367.16302933 41.58617746 367.17357306 35.93786156 367.19149895 30.28948029 C367.19636824 28.24095798 367.19783551 26.19242432 367.19564335 24.14389739 C367.19316017 21.36880436 367.20283375 18.59401466 367.21565151 15.81895638 C367.21200183 15.01547961 367.20835215 14.21200285 367.20459187 13.38417831 C367.23766587 9.25079119 367.51867797 5.93447845 369.47736454 2.25447559 C372.83772649 -0.33223006 376.4414352 -0.00529902 380.55329227 -0.02018261 C381.25785557 -0.02529354 381.96241886 -0.03040447 382.68833256 -0.03567028 C385.01262804 -0.04954705 387.33662636 -0.04861101 389.66095829 -0.04630566 C391.27994236 -0.05019362 392.89892541 -0.0545285 394.51790714 -0.05929089 C397.90978141 -0.06674895 401.30155158 -0.06646482 404.69342899 -0.06119823 C409.03575237 -0.05540386 413.37764918 -0.07233558 417.71990204 -0.09554291 C421.06310859 -0.11028896 424.40621261 -0.11115078 427.74944592 -0.10803318 C429.35019685 -0.10854595 430.95095359 -0.11377534 432.55167294 -0.1238451 C434.79207643 -0.13620955 437.03165161 -0.12941855 439.27204227 -0.11783886 C440.54571156 -0.11846828 441.81938084 -0.11909771 443.13164616 -0.11974621 C446.77505725 0.28777281 448.62016136 0.98579785 451.47736454 3.25447559 C453.21046113 6.10185562 453.72759589 8.22219772 453.72921354 11.53502554 C453.7344768 12.38988315 453.73974006 13.24474076 453.74516281 14.12550315 C453.74076633 15.06173402 453.73636985 15.99796488 453.73184013 16.96256638 C453.73504661 17.96351262 453.73825309 18.96445886 453.74155673 19.99573681 C453.74991106 23.37671288 453.74391348 26.75751431 453.73806095 30.13849354 C453.74107915 32.57614051 453.74496696 35.01378653 453.74965352 37.45143086 C453.75782347 42.7652624 453.75972221 48.07904202 453.75615025 53.39287472 C453.75085263 61.29464238 453.75692902 69.19637262 453.76523318 77.09813622 C453.78049348 92.03010373 453.78217618 106.96205432 453.77971015 121.894028 C453.77787926 133.42230675 453.77963281 144.95057994 453.78393459 156.47885799 C453.78453699 158.13365892 453.78513819 159.78845985 453.7857382 161.44326078 C453.78664542 163.93672058 453.78755409 166.43018038 453.78847055 168.92364018 C453.79690314 192.11390516 453.80123364 215.30416805 453.79706383 238.49443436 C453.79690745 239.36911461 453.79675108 240.24379487 453.79658996 241.14498059 C453.79578415 245.5784581 453.79493838 250.0119356 453.79407666 254.44541311 C453.79382003 255.7662261 453.79382003 255.7662261 453.79355821 257.11372219 C453.79321156 258.89439274 453.79286303 260.6750633 453.79251262 262.45573386 C453.78715431 290.16868965 453.79508772 317.88161363 453.81354618 345.59456348 C453.83424814 376.71245912 453.84499238 407.83033505 453.8409707 438.94823796 C453.84057533 442.26425111 453.84021379 445.58026427 453.83987331 448.89627743 C453.83978258 449.71279625 453.83969185 450.52931506 453.83959837 451.37057687 C453.83843094 463.71282484 453.84509174 476.05505295 453.85568523 488.39729595 C453.86771606 502.42866774 453.86932068 516.45999569 453.85689507 530.49136811 C453.85024879 538.34882834 453.85193806 546.20618387 453.86548358 554.06363581 C453.87465862 559.92147402 453.86825384 565.77922619 453.85563578 571.63706041 C453.852967 574.0138646 453.85542294 576.39068088 453.86337165 578.76747327 C453.87339075 581.98535758 453.86513022 585.20268252 453.85209465 588.42054367 C453.859404 589.35443337 453.86671334 590.28832307 453.87424418 591.25051245 C453.83388591 596.02030032 453.71958318 599.45931381 450.47736454 603.25447559 C446.83774211 604.46768307 443.49868209 604.40257751 439.70932865 604.40164661 C438.90991694 604.4053233 438.11050524 604.40899999 437.28686893 604.41278809 C434.59922169 604.42383064 431.91161311 604.4276697 429.22394657 604.43147755 C427.30060547 604.43774164 425.37726559 604.44438839 423.45392704 604.45139027 C418.22253506 604.46880203 412.99115222 604.47935199 407.75973845 604.4875958 C404.49307471 604.4927444 401.22641381 604.49882012 397.95975208 604.50510693 C387.74395739 604.52415743 377.52816993 604.53839023 367.31236088 604.5467189 C355.51041061 604.5564991 343.70864749 604.5828397 331.9067632 604.62321979 C322.78992556 604.65334557 313.67314169 604.66818431 304.55625522 604.67149991 C299.1083257 604.67385395 293.66059616 604.68286075 288.21271992 604.70796108 C283.089284 604.73118565 277.96618057 604.73549768 272.84270573 604.7251997 C270.96132523 604.7247029 269.07992866 604.73106562 267.19859791 604.74475574 C264.63178639 604.76239054 262.06617907 604.75541061 259.49936771 604.74222279 C258.38034476 604.75867665 258.38034476 604.75867665 257.23871529 604.77546293 C252.37643389 604.71506968 249.88692346 603.71927066 246.47736454 600.25447559 C243.58815165 594.47604982 244.33098377 586.57271301 244.34149265 580.23462486 C244.33895003 579.368834 244.33640741 578.50304313 244.33378774 577.61101618 C244.32648865 574.71998685 244.32619303 571.82900043 244.32587528 568.93796253 C244.32202302 566.84034582 244.31773513 564.74272986 244.31304979 562.64511484 C244.30143267 556.88871281 244.2959311 551.13231869 244.29141498 545.3759073 C244.28545755 539.16532934 244.27379219 532.95476186 244.26278019 526.74419117 C244.24444274 515.98603062 244.22957328 505.22787119 244.21700382 494.46970272 C244.19876781 478.91302605 244.1740615 463.35636438 244.14762992 447.79969972 C244.1353225 440.55099777 244.12333066 433.30229529 244.11142063 426.05359268 C244.11022811 425.32802252 244.10903559 424.60245236 244.10780692 423.85489523 C244.07951029 406.59380483 244.05430041 389.33271014 244.02961063 372.07161427 C244.02798884 370.93899764 244.02798884 370.93899764 244.02633428 369.78349987 C244.00878823 357.52680109 243.9914296 345.27010204 243.97410929 333.01340294 C243.95786359 321.51718159 243.94155673 310.02096034 243.92511845 298.52473927 C243.92349925 297.39113454 243.92349925 297.39113454 243.92184734 296.2346287 C243.89719748 278.98901879 243.87166 261.74341082 243.84330845 244.49780655 C243.84152307 243.41147895 243.84152307 243.41147895 243.83970163 242.30320534 C243.82780082 235.07456145 243.81574311 227.84591783 243.80345142 220.61727459 C243.77705557 205.07389136 243.7534082 189.53051077 243.73527803 173.98711556 C243.72202884 162.6639954 243.70532243 151.34088587 243.68518293 140.01777542 C243.67439197 133.87888201 243.66528531 127.73999742 243.66048717 121.60109615 C243.65607664 115.99023854 243.64716024 110.37940748 243.63454396 104.76856249 C243.63078652 102.73045386 243.62874592 100.69234125 243.62852377 98.65422917 C243.62798803 95.90060065 243.6214193 93.14705312 243.61323643 90.39343834 C243.61454494 89.58786186 243.61585346 88.78228537 243.61720163 87.95229748 C243.68538882 83.97368909 243.68538882 83.97368909 242.47736454 80.25447559 C237.24462066 80.22979642 232.01191051 80.21162557 226.77912235 80.19954395 C224.99819187 80.19450849 223.21726554 80.18767978 221.43634892 80.17903614 C218.87969789 80.16693618 216.32310142 80.1612395 213.76642704 80.15681934 C212.96741978 80.15165806 212.16841251 80.14649677 211.34519291 80.14117908 C207.28044549 80.04108809 207.28044549 80.04108809 203.47736454 81.25447559 C203.47589933 82.45195207 203.47589933 82.45195207 203.47440451 83.67361999 C203.41617379 130.95415186 203.34240841 178.23463751 203.24837826 225.51511244 C203.23710965 231.1879989 203.22597127 236.8608856 203.21491337 242.53377247 C203.21270968 243.66317561 203.210506 244.79257875 203.20823554 245.95620623 C203.17283164 264.26023319 203.14798498 282.5642601 203.12701752 300.86830863 C203.10528008 319.64012142 203.0722493 338.41188965 203.02866298 357.18366456 C203.00211077 368.77341404 202.98444171 380.36310797 202.9780185 391.95288637 C202.97277552 399.89284379 202.95659537 407.83273122 202.93169888 415.77265117 C202.91764641 420.35838427 202.90852699 424.94399197 202.91235638 429.52974796 C202.91575305 433.72435698 202.90548059 437.9186976 202.88412903 442.1132516 C202.87883708 443.63416487 202.87865126 445.15510586 202.88396891 446.67601904 C202.89044419 448.73730909 202.87863866 450.79770305 202.8621254 452.85891819 C202.8602268 454.00567359 202.85832819 455.15242898 202.85637206 456.33393455 C202.43424558 459.58673993 201.78039636 460.95237801 199.47736454 463.25447559 C196.02920308 464.40386275 193.33663767 464.39556844 189.69855595 464.41560841 C189.01364582 464.42057331 188.32873569 464.42553822 187.62307072 464.43065357 C185.35834592 464.44525275 183.09369115 464.45207325 180.82892704 464.45760059 C179.25335533 464.46335369 177.67778363 464.4691114 176.10221195 464.47487354 C172.79854856 464.48537699 169.49490946 464.49122402 166.19123173 464.49470997 C161.96212564 464.5001948 157.73334149 464.52422511 153.50433636 464.55268192 C150.24950064 464.57132324 146.99474226 464.57651468 143.73985767 464.57804585 C142.18096372 464.5810693 140.62207103 464.5890875 139.06322956 464.60223103 C136.88022583 464.6193241 134.69800606 464.61740385 132.5149622 464.61092091 C131.2738065 464.61456654 130.03265079 464.61821217 128.75388432 464.62196827 C124.21294434 464.11265891 121.66262775 462.4397388 118.47736454 459.25447559 C118.15839291 456.47699833 118.15839291 456.47699833 118.06302738 452.77821827 C118.04358924 452.08235221 118.0241511 451.38648616 118.00412393 450.66953325 C117.94156339 448.24908136 117.89594702 445.82865224 117.85187626 443.40779591 C117.82389379 442.09821218 117.82389379 442.09821218 117.79534602 440.76217222 C117.15788335 410.48685466 117.40369838 380.19184072 117.4691099 349.91184299 C117.49029187 339.83540839 117.50071181 329.75896568 117.51102543 319.68251514 C117.51502261 315.90638822 117.51909158 312.13026138 117.52318478 308.35413456 C117.524204 307.41166826 117.52522323 306.46920197 117.52627335 305.49817608 C117.53792663 294.86225261 117.5518351 284.2263325 117.56672001 273.59041309 C117.56807244 272.6220261 117.56942487 271.65363911 117.57081829 270.65590706 C117.59314469 254.85768853 117.62304635 239.05949046 117.65468742 223.26128826 C117.68704161 206.96632313 117.70792633 190.67136893 117.71895969 174.37637544 C117.72617398 164.35849509 117.7428432 154.34072003 117.77176045 144.32287839 C117.79071433 137.48643715 117.79884679 130.65003803 117.79835548 123.81357071 C117.79841861 119.87142974 117.8034355 115.92945437 117.82152271 111.98735142 C117.83797201 108.38155499 117.84064797 104.776023 117.83227395 101.17020121 C117.83142642 99.24618231 117.84543784 97.32217467 117.85994637 95.39821029 C117.85458992 94.25705237 117.84923348 93.11589445 117.84371471 91.94015598 C117.84623656 90.46353556 117.84623656 90.46353556 117.84880936 88.95708442 C117.40200708 85.70617951 116.4962814 83.83276665 114.47736454 81.25447559 C111.51149948 80.77472342 109.12330023 80.62241375 106.16095829 80.69588184 C105.34869282 80.69821323 104.53642735 80.70054462 103.69954777 80.70294666 C101.98385956 80.71268453 100.26820356 80.73447295 98.55280399 80.76741505 C95.92105603 80.81685927 93.29117577 80.82889631 90.65900517 80.83455372 C88.99296957 80.84863831 87.32695026 80.86484221 85.66095829 80.88338184 C84.47656414 80.8914259 84.47656414 80.8914259 83.26824284 80.89963245 C78.90605289 80.83614797 78.90605289 80.83614797 75.47736454 83.25447559 C74.3571294 89.51110433 74.34067116 95.69633819 74.36383915 102.03749561 C74.36361586 103.63484598 74.36361586 103.63484598 74.36338806 105.26446605 C74.3640811 108.82528382 74.37191887 112.38604963 74.37970829 115.94685841 C74.3816289 118.50809163 74.38309202 121.06932523 74.38413334 123.63055897 C74.38729777 129.15944366 74.39346576 134.6883123 74.40219975 140.21719074 C74.4148796 148.31106323 74.42086266 156.40493089 74.42513311 164.49881169 C74.4322125 177.76486363 74.44299833 191.03090954 74.45685673 204.29695606 C74.45768454 205.09071855 74.45851235 205.88448104 74.45936525 206.70229694 C74.46770617 214.66152208 74.47638181 222.62074685 74.48515981 230.57997152 C74.53494904 275.8048537 74.56802963 321.02962111 74.47736454 366.25447559 C74.47482418 367.53539963 74.47228382 368.81632366 74.46966648 370.13606358 C74.43842495 385.04595633 74.38048859 399.9553024 74.26883793 414.86481953 C74.23958167 418.82217032 74.21906252 422.77940536 74.2066431 426.73684406 C74.19196663 431.22891218 74.15858178 435.7204161 74.10911846 440.21223259 C74.09443299 441.81833957 74.08632795 443.42452299 74.08546352 445.03069687 C74.08312521 447.19006519 74.05646262 449.34777404 74.02326298 451.50685596 C74.00993931 453.29591169 74.00993931 453.29591169 73.99634647 455.12110996 C73.3698952 458.90332424 72.1751323 460.57250267 69.47736454 463.25447559 C66.02551199 464.40509311 63.3405504 464.38853973 59.69855595 464.39973927 C58.67119076 464.40477718 58.67119076 464.40477718 57.62307072 464.40991688 C55.35833772 464.41941746 53.09367873 464.42136959 50.82892704 464.42244434 C49.25335503 464.42565773 47.67778333 464.42902186 46.10221195 464.4325304 C42.79854484 464.43851956 39.49490388 464.44037054 36.19123173 464.43977833 C31.9621973 464.43967676 27.73333096 464.45332445 23.50433636 464.47055054 C20.24950233 464.48168085 16.99470879 464.48369721 13.73985767 464.4831686 C12.18097575 464.48434733 10.62209273 464.48876314 9.06322956 464.49650097 C6.88035481 464.50632102 4.69784305 464.50341494 2.5149622 464.49739552 C1.2738065 464.49882053 0.03265079 464.50024555 -1.24611568 464.50171375 C-4.58021134 464.25013106 -6.66344732 463.98427064 -9.52263546 462.25447559 C-12.35881963 457.68720882 -12.95298881 453.81542611 -12.90015888 448.55477715 C-12.9045192 447.79524822 -12.90887953 447.03571929 -12.91337198 446.25317433 C-12.92432975 443.70533586 -12.91390391 441.15803837 -12.90358639 438.61020374 C-12.90704275 436.76622568 -12.91180717 434.92224968 -12.91776812 433.07827801 C-12.93031083 428.0087888 -12.92409283 422.93946866 -12.91480947 417.86997879 C-12.90803267 412.40362987 -12.91849344 406.93731039 -12.92674923 401.47096729 C-12.94010365 390.7611773 -12.93720113 380.05145031 -12.92851131 369.34165782 C-12.92174154 360.63857486 -12.92081498 351.93550958 -12.92408276 343.23242474 C-12.92454246 341.99467226 -12.92500215 340.75691979 -12.92547578 339.48165966 C-12.92643494 336.96732998 -12.92740758 334.4530003 -12.92839356 331.93867063 C-12.93670846 309.02258279 -12.92807905 286.10652251 -12.91236577 263.19044114 C-12.89813058 242.27093095 -12.8994012 221.35147554 -12.91374874 200.43196583 C-12.92981339 176.93023908 -12.93612678 153.42853645 -12.92691195 129.92680401 C-12.92595629 127.42131675 -12.92501317 124.91582948 -12.92408276 122.41034222 C-12.92361993 121.17753984 -12.9231571 119.94473746 -12.92268025 118.67457743 C-12.9200884 109.98096813 -12.9244656 101.28737824 -12.93152142 92.59377193 C-12.93992987 82.00049296 -12.9376701 71.40728069 -12.92167918 60.81400938 C-12.91378743 55.40762675 -12.91072031 50.0013554 -12.92062664 44.59497356 C-12.92955533 39.64735462 -12.92467073 34.69995024 -12.90869398 29.7523508 C-12.90533843 27.96103334 -12.9070576 26.16969781 -12.91432135 24.37839193 C-12.92343175 21.94534121 -12.9140997 19.51302736 -12.90015888 17.08001518 C-12.90718238 16.38297695 -12.91420588 15.68593872 -12.92144221 14.96777812 C-12.86408493 9.96614069 -11.90315137 6.57853035 -9.52263546 2.25447559 C-6.52709213 -0.05696591 -3.70621601 0.0032882 0 0 Z M409.47736454 87.25447559 C408.26991454 88.24220776 408.26991454 88.24220776 408.35316604 90.14198214 C408.35354576 90.97698714 408.35392548 91.81199215 408.35431671 92.67230034 C408.35232566 93.63222517 408.35033461 94.59215 408.34828323 95.58116347 C408.35119607 96.64826141 408.35410891 97.71535935 408.35711002 98.81479359 C408.3562556 99.93862491 408.35540117 101.06245623 408.35452086 102.22034305 C408.35286278 106.01762503 408.35839277 109.81486364 408.36383915 113.61214161 C408.36467654 116.32161455 408.3640075 119.03108662 408.36339664 121.74055958 C408.36287121 127.5900725 408.36602001 133.43957431 408.37163448 139.28908443 C408.3797469 147.74658879 408.38236444 156.20408775 408.38362247 164.66159558 C408.3858134 178.38193038 408.39247459 192.10225925 408.40192509 205.82259083 C408.41109815 219.15397073 408.4181795 232.48534903 408.4224329 245.81673145 C408.42269562 246.63789251 408.42295835 247.45905357 408.42322903 248.3050983 C408.42453403 252.42444725 408.42579775 256.54379621 408.42704093 260.66314518 C408.43741482 294.86025959 408.45503424 329.05736695 408.47736454 363.25447559 C409.79736454 363.25447559 411.11736454 363.25447559 412.47736454 363.25447559 C412.47736454 272.50447559 412.47736454 181.75447559 412.47736454 88.25447559 C411.48736454 87.92447559 410.49736454 87.59447559 409.47736454 87.25447559 Z " fill="#961ACE" transform="translate(275.5226354598999,186.7455244064331)"/>
<path d="M0 0 C0.71417084 -0.00671722 1.42834167 -0.01343445 2.16415405 -0.02035522 C4.52633614 -0.03936114 6.88823447 -0.04326076 9.25048828 -0.04541016 C10.89332191 -0.05183659 12.53615438 -0.05856483 14.1789856 -0.06558228 C17.62390801 -0.07756172 21.0687301 -0.08126245 24.51367188 -0.08007812 C28.92450522 -0.07987496 33.33469405 -0.10717068 37.74537468 -0.14162254 C41.13920028 -0.16387912 44.53287052 -0.16791605 47.92676163 -0.16685867 C49.55264633 -0.16921676 51.17853519 -0.17805202 52.80434799 -0.19352341 C55.08095939 -0.21315806 57.35617785 -0.2073565 59.6328125 -0.1953125 C61.57448807 -0.19958755 61.57448807 -0.19958755 63.5553894 -0.20394897 C67.50750151 0.37244888 69.14337767 1.50248376 71.94580078 4.29052734 C73.1855656 6.77005698 73.0723324 8.4082762 73.07460195 11.18304288 C73.07787414 12.22574004 73.08114634 13.2684372 73.08451769 14.34273124 C73.08303406 15.49948426 73.08155044 16.65623729 73.08002186 17.84804344 C73.08237409 19.07322367 73.08472632 20.29840389 73.08714983 21.56071079 C73.09269263 24.98755036 73.09370939 28.41433892 73.09287242 31.84117946 C73.09304141 35.55945401 73.09894174 39.27772005 73.10411328 42.9959904 C73.11345826 50.38237805 73.11736451 57.76875972 73.11963225 65.15515255 C73.12258935 73.99758154 73.13128377 82.84000253 73.14004653 91.68242733 C73.16091083 113.05639532 73.17136334 134.43036471 73.18017613 155.80434051 C73.1843793 165.9095365 73.18960169 176.0147319 73.19486066 186.11992739 C73.21275142 220.69072586 73.22774934 255.26152449 73.23518085 289.83232689 C73.23565562 292.00348009 73.23613151 294.17463329 73.23660852 296.34578649 C73.23696308 297.96087702 73.23696308 297.96087702 73.23732481 299.60859565 C73.23852604 305.06409632 73.23974148 310.51959699 73.2409668 315.97509766 C73.24120695 317.0577698 73.2414471 318.14044194 73.24169452 319.25592233 C73.24959184 354.37842511 73.27303228 389.50089416 73.30552274 424.62338221 C73.33978722 461.73112987 73.3595288 498.83885779 73.3628251 535.94662154 C73.36324266 540.01672785 73.36372222 544.08683416 73.36424828 548.15694046 C73.36437147 549.15916187 73.36449466 550.16138327 73.36462158 551.19397502 C73.3669577 567.35173294 73.38264041 583.50945182 73.40309012 599.6671958 C73.4233026 615.89435844 73.42884717 632.12147397 73.41931949 648.34864686 C73.41408682 657.9993095 73.42006489 667.64981579 73.44185416 677.30045606 C73.45529616 683.73834736 73.45434415 690.17613025 73.4414522 696.61402247 C73.43451127 700.28782512 73.43403538 703.96132747 73.45101229 707.6351041 C73.4691128 711.58398911 73.45658946 715.53242579 73.44078541 719.48132896 C73.45100762 720.63339966 73.46122982 721.78547035 73.47176179 722.97245228 C73.46251639 724.02015648 73.453271 725.06786067 73.44374543 726.14731348 C73.44414562 727.05092969 73.4445458 727.95454591 73.44495811 728.88554444 C72.78635355 732.05875778 71.40175836 733.24841129 68.94580078 735.29052734 C66.6340516 736.44640193 65.32582787 736.4168508 62.7533471 736.41932851 C61.86714864 736.4226007 60.98095019 736.4258729 60.06789723 736.42924425 C59.0863037 736.42776063 58.10471018 736.426277 57.09337139 736.42474842 C56.0525235 736.42710065 55.0116756 736.42945288 53.93928686 736.43187639 C50.4105794 736.43859546 46.88190852 736.4381073 43.35319519 736.43769836 C40.81415494 736.44099517 38.27511522 736.44472035 35.73607618 736.44883984 C29.46348771 736.45783259 23.1909103 736.46209077 16.91831627 736.46435881 C9.40892462 736.46731639 1.89954238 736.47601112 -5.60984434 736.48477309 C-23.76186072 736.50563586 -41.91387874 736.51608982 -60.06590432 736.5249027 C-68.64864489 736.52910624 -77.23138476 736.5343286 -85.81412473 736.53958723 C-115.17897518 736.55747822 -144.54382583 736.57247577 -173.90868092 736.57990742 C-175.75284302 736.58038218 -177.59700512 736.58085807 -179.44116722 736.58133508 C-180.81300873 736.58168964 -180.81300873 736.58168964 -182.21256422 736.58205137 C-186.84638071 736.5832526 -191.48019719 736.58446804 -196.11401367 736.58569336 C-197.0336172 736.58593351 -197.95322073 736.58617366 -198.90069104 736.58642109 C-228.72950968 736.59431744 -258.5582886 736.61775579 -288.38708989 736.6502493 C-319.9049937 736.6845203 -351.42287427 736.70425598 -382.94079703 736.70755166 C-386.39838931 736.70796922 -389.85598157 736.70844878 -393.31357384 736.70897484 C-394.59065971 736.70915963 -394.59065971 736.70915963 -395.89354529 736.70934815 C-409.61494606 736.7116835 -423.33630082 736.72736199 -437.05768518 736.74781668 C-450.84057462 736.76803767 -464.62340859 736.77356969 -478.40631012 736.76404605 C-486.60150396 736.75881664 -494.79651359 736.76477616 -502.99168104 736.78658072 C-509.10102509 736.80161157 -515.21016006 736.79589491 -521.31951448 736.7819102 C-523.79866902 736.77951375 -526.27784099 736.7839618 -528.75696871 736.79573885 C-532.11305046 736.81070135 -535.4681895 736.80129345 -538.82424641 736.78551197 C-539.79881644 736.79573418 -540.77338646 736.80595638 -541.77748892 736.81648836 C-546.0132337 736.77266968 -548.41682847 736.67207622 -552.11253208 734.45971936 C-556.62563488 729.41777043 -556.34420833 722.92109009 -556.3081665 716.5234375 C-556.31128649 715.66484949 -556.31440647 714.80626148 -556.31762099 713.92165565 C-556.3255697 711.05756295 -556.31928955 708.19368396 -556.31298828 705.32958984 C-556.31569953 703.27097449 -556.31926121 701.21236011 -556.3236084 699.15374756 C-556.33271871 693.57120124 -556.32919371 687.98872893 -556.32285023 682.40618134 C-556.31778324 676.56115013 -556.32248363 670.71612521 -556.32562256 664.87109375 C-556.32926015 655.05581526 -556.3244685 645.24056688 -556.31494141 635.42529297 C-556.30405727 624.08099009 -556.30758299 612.7367591 -556.31859422 601.39245796 C-556.32767295 591.6487574 -556.32894949 581.90507847 -556.32371688 572.16137505 C-556.32060042 566.34351295 -556.32017899 560.52568463 -556.32678986 554.70782471 C-556.33257118 549.2380258 -556.32855193 543.7683195 -556.31700134 538.29853058 C-556.31435898 536.29222009 -556.31511261 534.28590179 -556.31952667 532.27959442 C-556.32500023 529.53883046 -556.31812596 526.79836236 -556.3081665 524.05761719 C-556.31262795 523.26568277 -556.31708939 522.47374836 -556.32168603 521.65781593 C-556.28123707 515.90992731 -555.89261721 510.4736487 -552.05419922 505.91552734 C-548.11448859 502.71451246 -544.49852172 503.13679828 -539.62263489 503.12989807 C-538.29828376 503.12226634 -538.29828376 503.12226634 -536.94717807 503.11448044 C-533.97089052 503.09870896 -530.99462732 503.09021852 -528.01831055 503.08178711 C-525.89146773 503.07225243 -523.76462649 503.06236144 -521.63778687 503.05213928 C-514.63728689 503.0207094 -507.63677487 503.00048239 -500.63623047 502.98193359 C-498.8511164 502.97698761 -498.8511164 502.97698761 -497.02993941 502.97194171 C-485.81089107 502.94115886 -474.59184012 502.91444468 -463.37276173 502.89752293 C-449.01066257 502.87560861 -434.64893693 502.83362721 -420.28698713 502.76408535 C-410.19520321 502.71687542 -400.10352018 502.69259333 -390.01162928 502.68532604 C-383.98113744 502.68036519 -377.95106623 502.66524255 -371.92069435 502.62558174 C-366.24643456 502.58875574 -360.57283636 502.58029281 -354.89847946 502.59358788 C-352.81635455 502.59353386 -350.73420064 502.58321041 -348.65218544 502.56183624 C-345.8075509 502.53419538 -342.96533587 502.54364494 -340.12068176 502.56227112 C-339.29810011 502.54547619 -338.47551846 502.52868126 -337.62801009 502.51137739 C-332.13738669 502.60112313 -329.34660308 504.03493047 -325.36436194 507.8083176 C-293.90132245 543.4029982 -322.39596653 602.78487151 -322.05419922 650.29052734 C-169.09919922 649.79552734 -169.09919922 649.79552734 -13.05419922 649.29052734 C-13.08900391 603.00416016 -13.12380859 556.71779297 -13.15966797 509.02880859 C-13.17407321 481.53837997 -13.18827566 454.04795428 -13.19869411 426.55752432 C-13.20481794 410.43971152 -13.21108181 394.32189878 -13.2177772 378.20408621 C-13.21858672 376.25443312 -13.21939183 374.30478004 -13.22019248 372.35512695 C-13.2330004 341.25587183 -13.25551724 310.15663302 -13.28309088 279.05738777 C-13.31137098 247.10343488 -13.32985144 215.14949103 -13.33594419 183.19552584 C-13.33680869 178.68560452 -13.33778561 174.17568323 -13.33883095 169.66576195 C-13.33903322 168.77811645 -13.33923549 167.89047096 -13.33944388 166.97592712 C-13.34299351 152.66862928 -13.3569197 138.36135932 -13.37469532 124.05407286 C-13.39233146 109.6817189 -13.39910959 95.30939267 -13.39470335 80.93702827 C-13.39241601 72.39083303 -13.39855466 63.84473902 -13.41659185 55.298562 C-13.42780954 49.59553233 -13.42821284 43.89256924 -13.41969466 38.18953505 C-13.41514888 34.93625559 -13.4170681 31.68320784 -13.42884877 28.42994086 C-13.44078995 24.93049542 -13.43445894 21.43155516 -13.4233427 17.93211842 C-13.43122375 16.91526371 -13.43910479 15.89840901 -13.44722465 14.85074052 C-13.38470166 6.21226592 -13.38470166 6.21226592 -10.05419922 2.29052734 C-6.34263946 -0.18384583 -4.43404692 0.02614622 0 0 Z M-472.05419922 587.29052734 C-473.32749314 589.83711519 -473.18811394 591.63613469 -473.19946289 594.48706055 C-473.20584274 595.57191238 -473.2122226 596.65676422 -473.21879578 597.77449036 C-473.2199086 598.95154037 -473.22102142 600.12859039 -473.22216797 601.34130859 C-473.22549637 602.5474028 -473.22882477 603.75349701 -473.23225403 604.99613953 C-473.23732512 607.55251686 -473.2396623 610.10890084 -473.23950195 612.6652832 C-473.2416843 616.57628319 -473.25982699 620.48699934 -473.27880859 624.39794922 C-473.28174329 626.87906804 -473.28372758 629.36018821 -473.28466797 631.84130859 C-473.29185349 633.01228592 -473.299039 634.18326324 -473.30644226 635.38972473 C-473.30336563 636.48403305 -473.300289 637.57834137 -473.29711914 638.70581055 C-473.29854416 639.66574417 -473.29996918 640.6256778 -473.30143738 641.61470032 C-473.02946504 644.55822217 -472.43757333 646.67857572 -471.05419922 649.29052734 C-467.93869304 650.3290294 -465.72217784 650.43571587 -462.45288086 650.4675293 C-461.30481461 650.48036453 -460.15674835 650.49319977 -458.97389221 650.50642395 C-457.73324509 650.51381088 -456.49259796 650.52119781 -455.21435547 650.52880859 C-453.30389687 650.54091621 -453.30389687 650.54091621 -451.35484314 650.55326843 C-448.65896974 650.56710697 -445.96321856 650.57812484 -443.26733398 650.58569336 C-439.81595649 650.59677208 -436.3652212 650.631196 -432.91407108 650.67086506 C-429.61839621 650.70329913 -426.32266563 650.70780628 -423.02685547 650.71630859 C-421.78823257 650.73381668 -420.54960968 650.75132477 -419.27345276 650.7693634 C-418.12223434 650.76643784 -416.97101593 650.76351227 -415.78491211 650.76049805 C-414.7724794 650.76636429 -413.76004669 650.77223053 -412.7169342 650.77827454 C-409.34107926 650.15990141 -408.18928499 648.91580641 -406.05419922 646.29052734 C-404.8030518 643.78823251 -404.9205113 642.07759009 -404.90893555 639.27758789 C-404.90255569 638.23277756 -404.89617584 637.18796722 -404.88960266 636.11149597 C-404.88848984 634.97819351 -404.88737701 633.84489105 -404.88623047 632.67724609 C-404.88290207 631.51554398 -404.87957367 630.35384186 -404.87614441 629.15693665 C-404.87107359 626.69471636 -404.86873613 624.23248918 -404.86889648 621.77026367 C-404.86671433 618.00411614 -404.84857193 614.23826346 -404.82958984 610.47216797 C-404.8266551 608.08219501 -404.82467085 605.69222067 -404.82373047 603.30224609 C-404.81295219 601.61140144 -404.81295219 601.61140144 -404.80195618 599.88639832 C-404.80657112 598.30499809 -404.80657112 598.30499809 -404.8112793 596.69165039 C-404.80985428 595.76724655 -404.80842926 594.84284271 -404.80696106 593.89042664 C-405.15585153 590.22157512 -406.19015892 587.49542503 -408.33584595 584.50328064 C-410.77584268 582.78121677 -412.57724253 582.90267288 -415.54785156 582.88647461 C-416.67266937 582.87379044 -417.79748718 582.86110626 -418.95639038 582.84803772 C-420.17202667 582.85097336 -421.38766296 582.853909 -422.64013672 582.85693359 C-423.88920807 582.85169174 -425.13827942 582.84644989 -426.42520142 582.84104919 C-429.07008243 582.83461921 -431.71410283 582.83454295 -434.35888672 582.84448242 C-437.74076834 582.85595606 -441.1216033 582.83578921 -444.5033474 582.80656528 C-447.73644884 582.78375271 -450.96947366 582.79067256 -454.20263672 582.79443359 C-455.41422455 582.78319962 -456.62581238 582.77196564 -457.87411499 582.76039124 C-459.57079819 582.77446266 -459.57079819 582.77446266 -461.30175781 582.78881836 C-462.79042862 582.78906761 -462.79042862 582.78906761 -464.30917358 582.7893219 C-467.81148127 583.42879705 -469.49971265 584.86281496 -472.05419922 587.29052734 Z M-99.05419922 691.29052734 C-99.38419922 692.61052734 -99.71419922 693.93052734 -100.05419922 695.29052734 C-72.66419922 695.29052734 -45.27419922 695.29052734 -17.05419922 695.29052734 C-17.05419922 693.97052734 -17.05419922 692.65052734 -17.05419922 691.29052734 C-44.11419922 691.29052734 -71.17419922 691.29052734 -99.05419922 691.29052734 Z " fill="#7716D6" transform="translate(773.05419921875,186.70947265625)"/>
<path d="M0 0 C2.10482067 1.69143411 2.9295034 2.57253044 3.37590417 5.2793664 C3.37633119 6.18269112 3.3767582 7.08601584 3.37719816 8.01671404 C3.38884833 9.58413071 3.38884833 9.58413071 3.40073386 11.18321237 C3.39399621 12.33733838 3.38725856 13.4914644 3.38031673 14.68056393 C3.38497665 15.906898 3.38963657 17.13323206 3.3944377 18.39672777 C3.40437812 21.82229604 3.40076639 25.24737868 3.39160402 28.67291831 C3.38492531 32.39139889 3.39554462 36.10983537 3.40399987 39.82830673 C3.41640674 46.35254487 3.41756196 52.87671114 3.41144943 59.40095711 C3.40238422 69.10254455 3.41036951 78.80406515 3.42174067 88.50564745 C3.44144355 105.82977522 3.44374808 123.15387312 3.43854547 140.47800942 C3.43399454 155.63895456 3.43457966 170.79988784 3.44038582 185.9608326 C3.44114267 187.99171698 3.44189865 190.02260136 3.44265376 192.05348574 C3.44379891 195.11355855 3.44494879 198.17363135 3.44611301 201.23370415 C3.45682376 229.69711399 3.46153734 258.16051988 3.45364285 286.62393093 C3.45319709 288.23459308 3.45319709 288.23459308 3.45274232 289.87779386 C3.45029319 298.59852168 3.4476817 307.31924945 3.44505819 316.03997721 C3.43495419 350.06320993 3.44331173 384.08639331 3.46655273 418.10961914 C3.49260152 456.3053411 3.50547966 494.50103335 3.49836498 532.69676453 C3.49764888 536.76629356 3.4969745 540.8358226 3.49632454 544.90535164 C3.49615473 545.90742654 3.49598492 546.90950145 3.49580997 547.94194226 C3.4935031 563.09521656 3.50150242 578.24846336 3.51461601 593.40173149 C3.52949586 610.62705393 3.53041269 627.85231171 3.5125451 645.07763272 C3.50294999 654.72607262 3.50448209 664.37436193 3.52177979 674.02279192 C3.53221793 680.4591767 3.52824184 686.895446 3.51229975 693.33181929 C3.50361283 697.00473503 3.5013762 700.67735431 3.51656907 704.35025554 C3.53274639 708.29818924 3.51830198 712.2456596 3.50057125 716.19359493 C3.51022176 717.34537978 3.51987227 718.49716463 3.52981523 719.68385205 C3.52005738 720.73130002 3.51029953 721.77874798 3.50024599 722.8579368 C3.50019869 723.76132928 3.5001514 724.66472176 3.50010267 725.59548977 C2.8403081 728.76780397 1.45541437 729.95811103 -1 732 C-3.31437841 733.15718921 -4.6226853 733.12472134 -7.19820702 733.1241985 C-8.0856866 733.12644579 -8.97316619 733.12869308 -9.88753909 733.13100848 C-10.87056185 733.12838146 -11.85358462 733.12575445 -12.86639595 733.12304783 C-14.42991477 733.1247786 -14.42991477 733.1247786 -16.02501982 733.12654433 C-19.55877921 733.12921586 -23.09249409 733.12468442 -26.62625122 733.12025452 C-29.16885446 733.12069011 -31.71145767 733.12156479 -34.25406063 733.12284368 C-39.80326717 733.12462044 -45.35245963 733.12326589 -50.90166473 733.11920547 C-59.15320081 733.11318444 -67.4047301 733.11286837 -75.65626797 733.11374746 C-89.53489689 733.11506317 -103.41352106 733.11171311 -117.29214859 733.10573006 C-131.03938953 733.0998188 -144.78662849 733.09596528 -158.5338707 733.09487724 C-159.38772283 733.0948085 -160.24157497 733.09473976 -161.12130142 733.09466894 C-165.45735116 733.09433062 -169.79340091 733.09402923 -174.12945066 733.09374207 C-204.86445934 733.09164006 -235.59946544 733.08489827 -266.33447266 733.07543945 C-296.19840481 733.06625931 -326.06233625 733.05917359 -355.92626953 733.05493164 C-356.84634492 733.05480011 -357.76642031 733.05466859 -358.71437677 733.05453308 C-367.95391188 733.05321459 -377.19344699 733.05193877 -386.43298211 733.05069422 C-405.25601114 733.04815781 -424.07904013 733.04533656 -442.90206909 733.04234314 C-443.76757569 733.04220585 -444.63308229 733.04206856 -445.52481635 733.04192711 C-503.34987865 733.03272202 -561.17493949 733.01685555 -619 733 C-619.33 732.34 -619.66 731.68 -620 731 C-618.70518892 731.00113916 -617.41037784 731.00227832 -616.07633007 731.003452 C-559.02738402 731.05344603 -501.97843581 731.09973114 -444.92947388 731.12702942 C-444.06613311 731.12744359 -443.20279233 731.12785776 -442.31328972 731.12828448 C-423.55174686 731.13726266 -404.79020375 731.14557328 -386.02866029 731.15319599 C-376.8283516 731.15693808 -367.62804297 731.16082773 -358.42773438 731.16479492 C-357.05440335 731.16538334 -357.05440335 731.16538334 -355.65332826 731.16598364 C-325.96364861 731.17877363 -296.27398605 731.201312 -266.58431675 731.22889166 C-236.08096578 731.2571758 -205.57762427 731.27565316 -175.0742604 731.28174497 C-170.76845146 731.28260947 -166.46264255 731.28358638 -162.15683365 731.28463173 C-161.30936694 731.284834 -160.46190024 731.28503627 -159.58875272 731.28524467 C-145.93253493 731.28879342 -132.27634637 731.30271728 -118.62014052 731.3204961 C-104.89972973 731.338138 -91.17934799 731.34490892 -77.45892625 731.34050413 C-69.30175172 731.33821789 -61.14468331 731.34434572 -52.9875279 731.36239263 C-46.90463545 731.37493409 -40.82185765 731.37190176 -34.7389548 731.36269668 C-32.2718359 731.36142338 -29.8047082 731.36527856 -27.33760677 731.37464955 C-23.99547086 731.38661094 -20.65386221 731.38024717 -17.31173515 731.36914349 C-16.34403348 731.37702453 -15.37633181 731.38490557 -14.37930584 731.39302543 C-9.1818752 731.35374983 -5.47373688 730.96383693 -1 728 C0.35260576 725.29478848 0.11228818 723.22122245 0.09765625 720.18969727 C-0.07583099 681.6679329 -0.07895216 643.14761975 0.21435547 604.62646484 C0.22530717 603.17628887 0.23624528 601.72611278 0.24717021 600.2759366 C0.26396317 598.04763746 0.28075768 595.81933833 0.29757025 593.59103934 C0.31485926 591.2995083 0.3321294 589.00797713 0.34939575 586.71644592 C0.35520345 585.94679941 0.36101115 585.17715289 0.36699484 584.38418375 C1.18832319 475.30358113 1.15442265 366.22246361 1.12946078 257.13937942 C1.12490649 236.81077226 1.12582412 216.48217145 1.13037109 196.15356445 C1.13571943 172.16656809 1.13784171 148.17957543 1.13475883 124.19257826 C1.13444041 121.64774319 1.13412604 119.10290812 1.13381577 116.55807304 C1.13366149 115.30758706 1.13350721 114.05710107 1.13334826 112.76872157 C1.13248881 104.00676898 1.13393174 95.24481854 1.13629532 86.48286629 C1.1390866 75.91309225 1.13836566 65.34332566 1.13301457 54.77355248 C1.13038209 49.39888763 1.12936619 44.02423523 1.13266373 38.64957047 C1.13563035 33.74174987 1.13402818 28.83395338 1.12868617 23.926135 C1.1275647 22.14830999 1.12814725 20.37048296 1.13056196 18.59265924 C1.13358068 16.18742526 1.13050654 13.78227516 1.12584114 11.37704563 C1.12818231 10.68010447 1.13052347 9.98316331 1.13293558 9.26510271 C1.12029544 6.02907474 0.98993493 3.09558432 0 0 Z " fill="#2C0974" transform="translate(843,190)"/>
<path d="M0 0 C3.73584906 1.47169811 3.73584906 1.47169811 5 4 C5.09983595 6.4996025 5.13897789 8.97146225 5.13371277 11.47142029 C5.13597833 12.25097094 5.13824388 13.03052159 5.14057809 13.83369499 C5.14693569 16.46002699 5.14608761 19.08630762 5.14526367 21.71264648 C5.14825405 23.58982409 5.1516563 25.46700108 5.15544128 27.34417725 C5.16429747 32.45360471 5.16662007 37.56301543 5.16725707 42.67244983 C5.16820482 46.93212184 5.17188155 51.19178992 5.17542917 55.45146042 C5.18357976 65.49767159 5.18601284 75.5438738 5.18530273 85.59008789 C5.18470167 95.96699578 5.19525778 106.34385172 5.2110464 116.72074646 C5.22410392 125.61842705 5.22948739 134.51609064 5.22884732 143.41378075 C5.22859182 148.73304541 5.23147164 154.05226393 5.24202538 159.37151909 C5.25167641 164.3725712 5.25180621 169.37353279 5.24450874 174.37458801 C5.24345918 176.21325881 5.24584766 178.05193515 5.2518692 179.89059639 C5.25953981 182.39437087 5.25497731 184.89782883 5.24723816 187.40159607 C5.25238172 188.13466443 5.25752529 188.86773279 5.26282471 189.62301534 C5.23752553 193.30923693 5.10313736 194.84529396 3 198 C-1.875 197.125 -1.875 197.125 -3 196 C-3.09992877 193.52784713 -3.13441645 191.08357153 -3.12698364 188.61087036 C-3.12854363 187.82809058 -3.13010362 187.0453108 -3.13171089 186.23881042 C-3.1357241 183.59554891 -3.13252999 180.95234405 -3.12939453 178.30908203 C-3.13074845 176.42220018 -3.13252833 174.53531859 -3.13470459 172.6484375 C-3.13928064 167.50795681 -3.1374885 162.36749608 -3.1343255 157.22701502 C-3.13180204 151.85787558 -3.13413947 146.4887379 -3.13571167 141.11959839 C-3.13753372 132.09909761 -3.13512646 123.07860501 -3.13037109 114.05810547 C-3.1249317 103.61931742 -3.12668864 93.1805489 -3.1321975 82.74176133 C-3.13673155 73.79314669 -3.13737764 64.84453795 -3.13475883 55.89592254 C-3.13319724 50.54535913 -3.132999 45.19480492 -3.13629532 39.8442421 C-3.13917814 34.81285434 -3.13719072 29.78149183 -3.13140106 24.75010681 C-3.13007554 22.90015073 -3.13046408 21.05019253 -3.13266373 19.20023727 C-3.13538342 16.68116153 -3.13198393 14.16216742 -3.12698364 11.64309692 C-3.12921436 10.9054555 -3.13144509 10.16781407 -3.13374341 9.40781987 C-3.12182425 6.32641821 -2.98261727 3.94785181 -2 1 C-1.34 0.67 -0.68 0.34 0 0 Z " fill="#8716A7" transform="translate(223,301)"/>
<path d="M0 0 C0.33 0 0.66 0 1 0 C1.12867176 51.75281022 1.25617067 103.50562322 1.38218227 155.25843999 C1.39719541 161.42392095 1.41221786 167.58940189 1.42724609 173.75488281 C1.43023671 174.98187647 1.43322732 176.20887013 1.43630856 177.47304541 C1.48421005 197.11710327 1.53285956 216.76115921 1.58180541 236.40521449 C1.63233435 256.69162012 1.68201345 276.97802771 1.73096704 297.2644372 C1.7583541 308.60424601 1.78609094 319.94405371 1.81480408 331.28385925 C1.8801332 357.14932978 1.93902399 383.01480018 1.98385975 408.88031504 C1.99281999 414.03499428 2.00222107 419.18967209 2.01249313 424.34434891 C2.03545748 435.89216169 2.05541289 447.43996543 2.06649265 458.98779646 C2.07122664 463.8824233 2.07749471 468.77703465 2.08801365 473.67165279 C2.09760309 478.17638032 2.10244692 482.68108738 2.1035229 487.18582475 C2.10472314 488.82777479 2.10762977 490.46972462 2.11238134 492.11166823 C2.1185831 494.3505151 2.11856733 496.58927964 2.11699677 498.82813263 C2.11855758 500.07640477 2.1201184 501.3246769 2.12172651 502.61077547 C2.00527182 505.85321708 1.74623668 508.84167999 1 512 C-2.38393008 513.69196504 -6.22477791 513.11986549 -9.9453125 513.09765625 C-10.8303244 513.0962413 -11.7153363 513.09482635 -12.62716675 513.09336853 C-15.45981191 513.0877614 -18.29237864 513.07520771 -21.125 513.0625 C-23.04296761 513.05748592 -24.96093646 513.05292285 -26.87890625 513.04882812 C-31.58596782 513.03778966 -36.2929706 513.02052025 -41 513 C-43.22326503 509.42457374 -43.2491297 506.4949882 -43.24723816 502.33338928 C-43.25085978 501.32791389 -43.25085978 501.32791389 -43.25455457 500.30212587 C-43.26019305 498.05296224 -43.25152405 495.80408257 -43.24291992 493.55493164 C-43.24399359 491.93858259 -43.24593353 490.32223392 -43.24867249 488.70588684 C-43.25354172 484.28729671 -43.24581474 479.86880697 -43.23571944 475.45022893 C-43.22685281 470.73874758 -43.22869883 466.02726864 -43.2290802 461.31578064 C-43.22813978 453.31637953 -43.21944776 445.31701598 -43.20581055 437.31762695 C-43.192172 429.29255425 -43.18477591 421.26751613 -43.18530273 413.24243164 C-43.18770515 373.20366457 -43.08316858 333.17230162 -42.52723217 293.13709497 C-42.02335358 256.79308078 -41.90093487 220.45263212 -41.90234375 184.10546875 C-41.90236392 183.43351193 -41.90238409 182.7615551 -41.90240487 182.06923595 C-41.90321259 164.9658282 -41.91391721 147.86243079 -41.92797321 130.75902945 C-41.93603171 120.841388 -41.94140636 110.92374753 -41.94506836 101.00610352 C-41.94533108 100.2966211 -41.94559381 99.58713868 -41.94586449 98.85615679 C-41.94717055 95.29306327 -41.94843401 91.72996974 -41.94967639 88.1668762 C-41.95986156 59.11124608 -41.97738495 30.05562312 -42 1 C-39.4439899 3.5560101 -39.75624913 5.21735735 -39.72915444 8.70248303 C-39.73308997 9.50874195 -39.7370255 10.31500086 -39.74108028 11.14569187 C-39.73738382 12.00201705 -39.73368735 12.85834222 -39.72987887 13.74061665 C-39.71982546 16.64163688 -39.72414092 19.54246437 -39.72825623 22.4434967 C-39.72397383 24.53166104 -39.7188122 26.61982372 -39.71284157 28.70798391 C-39.69891414 34.4707437 -39.69748657 40.23345086 -39.69798481 45.996225 C-39.69635343 52.20145956 -39.68323845 58.40667062 -39.67144775 64.6118927 C-39.65254611 75.37127378 -39.64080579 86.13063785 -39.63390923 96.89003181 C-39.62661475 108.17833511 -39.61478021 119.4666196 -39.59700203 130.75491142 C-39.59589829 131.45612029 -39.59479454 132.15732916 -39.59365735 132.87978678 C-39.58802163 136.44072093 -39.58229372 140.00165493 -39.57652331 143.56258886 C-39.53571942 168.80254187 -39.50342035 194.04249902 -39.47680664 219.2824707 C-39.47519339 220.80959975 -39.47357995 222.33672881 -39.47196633 223.86385786 C-39.47116719 224.62051577 -39.47036804 225.37717368 -39.46954467 226.15676061 C-39.46550094 229.9849799 -39.46145258 233.81319918 -39.45739746 237.64141846 C-39.45659426 238.40055842 -39.45579107 239.15969838 -39.45496353 239.94184258 C-39.43626138 257.57719767 -39.41499783 275.21254935 -39.39282227 292.84790039 C-39.39187433 293.60334657 -39.39092639 294.35879274 -39.38994972 295.13713123 C-39.36829815 312.37432074 -39.34546336 329.61150815 -39.32029057 346.84869289 C-39.31923471 347.57252744 -39.31817886 348.29636199 -39.31709102 349.04213092 C-39.30758434 355.55230873 -39.29803014 362.06248647 -39.28822399 368.57266384 C-39.26373892 384.83027554 -39.24222679 401.08788216 -39.22795228 417.34550629 C-39.21799697 428.67282275 -39.20480647 440.00013013 -39.18830519 451.32743938 C-39.17950394 457.47021162 -39.17242281 463.61297439 -39.16966438 469.75575256 C-39.16712865 475.3693029 -39.16010632 480.98282832 -39.14939214 486.59636884 C-39.14633078 488.63668834 -39.14499602 490.67701123 -39.14548045 492.71733297 C-39.14590481 495.47163517 -39.14030532 498.22585816 -39.13307858 500.98014927 C-39.13467294 501.78874935 -39.1362673 502.59734944 -39.13790998 503.43045256 C-39.45626151 507.01149753 -39.45626151 507.01149753 -38 510 C-35.42978157 510.10094226 -32.88701968 510.13971237 -30.31640625 510.1328125 C-29.54570297 510.13376923 -28.77499969 510.13472595 -27.98094177 510.13571167 C-26.34756387 510.13639349 -24.71418327 510.13453909 -23.08081055 510.13037109 C-20.57659828 510.12503007 -18.07256597 510.13031224 -15.56835938 510.13671875 C-13.9843746 510.13605783 -12.40038994 510.13477637 -10.81640625 510.1328125 C-10.0642836 510.13483673 -9.31216095 510.13686096 -8.5372467 510.13894653 C-4.64068001 510.19696364 -4.64068001 510.19696364 -1 509 C-0.505 257.045 -0.505 257.045 0 0 Z " fill="#460C7B" transform="translate(643,194)"/>
<path d="M0 0 C1.13310097 -0.0039821 2.26620193 -0.00796419 3.43363929 -0.01206696 C5.30132669 -0.00332844 5.30132669 -0.00332844 7.20674515 0.00558662 C8.54250872 0.00471462 9.87827196 0.00296372 11.21403337 0.00040829 C14.887748 -0.00407018 18.56134633 0.00394527 22.23504615 0.01396441 C26.19547637 0.02258943 30.15589986 0.01967943 34.11633682 0.01815987 C40.97910749 0.01711041 47.84184017 0.02339331 54.70460129 0.03463554 C64.6270355 0.05087941 74.54945132 0.05609741 84.47189739 0.05861153 C100.56982337 0.06299038 116.6677291 0.07630464 132.76564407 0.09521675 C148.40464044 0.11357063 164.0436313 0.12772954 179.68263626 0.13623238 C181.12825928 0.13702055 181.12825928 0.13702055 182.6030868 0.13782464 C187.43785924 0.14043469 192.27263172 0.14296211 197.10740423 0.14544845 C237.226083 0.16618687 277.34473915 0.20141758 317.46339798 0.24609566 C317.46339798 0.57609566 317.46339798 0.90609566 317.46339798 1.24609566 C316.78607032 1.24593331 316.10874266 1.24577095 315.41088992 1.24560368 C275.28660817 1.23674569 235.16245219 1.25903183 195.03821586 1.32188595 C190.22283094 1.32940219 185.40744565 1.33665764 180.59206009 1.34375191 C179.1540464 1.34587704 179.1540464 1.34587704 177.68698194 1.3480451 C162.15451168 1.37037707 146.62210783 1.37157136 131.08962599 1.36498429 C115.1574963 1.3586971 99.22550653 1.37505494 83.29341906 1.41253173 C73.4586247 1.43494929 63.62414877 1.43960282 53.7893438 1.4216923 C47.04959109 1.41110858 40.31010062 1.42247694 33.57040188 1.45125718 C29.67903628 1.46722136 25.78829419 1.47336326 21.8969326 1.4534874 C17.68111421 1.43220675 13.46683999 1.45708003 9.25107193 1.48660469 C8.01664173 1.47301859 6.78221154 1.45943249 5.51037437 1.44543469 C-0.19658533 1.37807748 -0.19658533 1.37807748 -5.36138213 3.42147803 C-10.10428577 8.68327824 -10.83368084 15.15930934 -10.78269768 21.93411255 C-10.78500537 22.6923619 -10.78731305 23.45061126 -10.78969067 24.23183787 C-10.79498866 26.77516169 -10.78600827 29.3182328 -10.77711105 31.86154366 C-10.77798316 33.70225875 -10.77973424 35.54297361 -10.78228939 37.38368714 C-10.78676589 42.44386312 -10.77875503 47.5039546 -10.76873326 52.56411982 C-10.76010545 58.02009804 -10.76301845 63.4760714 -10.76453781 68.93205452 C-10.76558709 78.38560174 -10.75930603 87.83912138 -10.74806213 97.29266167 C-10.73181587 110.96093225 -10.72660002 124.62918948 -10.72408615 138.29746868 C-10.71970768 160.47273433 -10.70641161 182.64798663 -10.68748093 204.82324409 C-10.66911153 226.36588655 -10.65494456 247.90852507 -10.6464653 269.45117378 C-10.64620225 270.11523951 -10.6459392 270.77930523 -10.64566817 271.46349416 C-10.64276946 278.79405573 -10.63998578 286.12461734 -10.63724923 293.45517898 C-10.61651199 348.71882803 -10.58128231 403.98246114 -10.53660202 459.24609566 C-12.93646533 455.64630069 -12.81691153 453.07143043 -12.79107761 448.9155407 C-12.79428409 448.1594733 -12.79749057 447.40340591 -12.80079421 446.62442738 C-12.80914903 444.07040504 -12.80315088 441.51661388 -12.79729843 438.96258736 C-12.80031663 437.1211997 -12.80420444 435.27981329 -12.808891 433.43842912 C-12.81922275 428.36219654 -12.81697606 423.28603419 -12.8127104 418.20979571 C-12.81025248 412.74135296 -12.81924576 407.27292753 -12.82674789 401.80449104 C-12.83952367 391.08427733 -12.84128495 380.36408864 -12.83894763 369.6438686 C-12.83716728 360.93213506 -12.83890803 352.22040915 -12.84317207 343.50867653 C-12.84376726 342.27051758 -12.84436245 341.03235864 -12.84497568 339.75667973 C-12.84618739 337.24162545 -12.84740152 334.72657117 -12.84861805 332.21151689 C-12.85826367 311.29454274 -12.85869273 290.37757819 -12.85331414 269.46060321 C-12.85314305 268.79502458 -12.85297196 268.12944595 -12.85279569 267.44369827 C-12.85244904 266.0977348 -12.85210051 264.75177134 -12.8517501 263.40580787 C-12.84639392 242.46664886 -12.85431893 221.52753197 -12.87278366 200.58838081 C-12.89349634 177.0723957 -12.90419654 153.55643073 -12.90020818 130.04043508 C-12.89829339 117.5859709 -12.90081044 105.13154508 -12.91492271 92.67708778 C-12.92681657 82.07276115 -12.92826396 71.46849649 -12.91613255 60.86416903 C-12.91022942 55.45172851 -12.90918391 50.03940146 -12.92113495 44.62696838 C-12.93194516 39.67368354 -12.92894852 34.72060757 -12.91487326 29.7673327 C-12.91221285 27.9739047 -12.91463479 26.18046058 -12.92260913 24.38704833 C-12.93268986 21.95111763 -12.92431516 19.51591649 -12.91133213 17.08001518 C-12.91864148 16.38211941 -12.92595082 15.68422363 -12.93348166 14.9651795 C-12.87811098 9.9603685 -11.91904371 6.57248819 -9.53660202 2.24609566 C-6.53668053 -0.07067468 -3.71212143 -0.00287761 0 0 Z " fill="#370653" transform="translate(275.5366020202637,186.75390434265137)"/>
<path d="M0 0 C33.24154028 33.24154028 2.66180273 93.99057943 3 141 C155.955 140.505 155.955 140.505 312 140 C312 140.99 312 141.98 312 143 C272.52485532 143.02286483 233.04971151 143.04049744 193.57456154 143.05106533 C188.91925521 143.05231611 184.26394889 143.05361042 179.60864258 143.05493164 C178.21840017 143.05532511 178.21840017 143.05532511 176.80007207 143.05572652 C161.77253813 143.06008355 146.74500799 143.06797127 131.71747632 143.0771528 C116.30975265 143.08648844 100.90203098 143.09205542 85.4943046 143.09408849 C75.97897498 143.09546391 66.46365611 143.09981549 56.9483298 143.10791647 C50.43250736 143.11318282 43.91669052 143.11480455 37.4008661 143.11350138 C33.6357644 143.11285782 29.87068157 143.11387746 26.10558319 143.11920547 C22.03339403 143.12492632 17.96124557 143.1230012 13.88905334 143.12025452 C12.68577221 143.12316736 11.48249108 143.1260802 10.24274689 143.12908131 C9.16090321 143.12709026 8.07905954 143.12509921 6.96443272 143.12304783 C6.02310602 143.12342755 5.08177932 143.12380727 4.11192757 143.1241985 C2 143 2 143 1 142 C0.89131838 140.16541825 0.85311584 138.3266395 0.84178162 136.48887634 C0.8319928 135.2926918 0.82220398 134.09650726 0.81211853 132.86407471 C0.80621359 131.52648966 0.80040319 130.18890419 0.79467773 128.85131836 C0.78510447 127.45217089 0.77509472 126.05302634 0.76467896 124.65388489 C0.737564 120.84416691 0.71659025 117.03443646 0.69667697 113.22467494 C0.67485792 109.24746201 0.64744933 105.27028781 0.62062073 101.29310608 C0.57063848 93.7566427 0.52572025 86.22015788 0.48259836 78.68365246 C0.43327316 70.10577421 0.3783376 61.52793481 0.32291877 52.9500941 C0.20901383 35.30009878 0.10219343 17.65006682 0 0 Z " fill="#25085A" transform="translate(448,696)"/>
<path d="M0 0 C1.07607513 -0.0076664 1.07607513 -0.0076664 2.17388916 -0.01548767 C4.54569841 -0.02939031 6.91721735 -0.02842664 9.2890625 -0.02612305 C10.9366873 -0.03000922 12.5843111 -0.03434373 14.23193359 -0.03910828 C17.6852544 -0.04657163 21.13847296 -0.04627811 24.59179688 -0.04101562 C29.02065986 -0.03521655 33.44910526 -0.05216175 37.87789917 -0.0753603 C41.28021701 -0.090079 44.6824338 -0.09097197 48.08477783 -0.08785057 C49.71788359 -0.08836458 51.35099488 -0.09361731 52.98406982 -0.10366249 C55.2656993 -0.11597577 57.54650902 -0.10926708 59.828125 -0.09765625 C61.1270166 -0.09828568 62.4259082 -0.0989151 63.76416016 -0.0995636 C66.9140625 0.2746582 66.9140625 0.2746582 68.85693359 1.79792786 C69.20578613 2.28524887 69.55463867 2.77256989 69.9140625 3.2746582 C69.3997467 3.11389297 68.88543091 2.95312775 68.35552979 2.78749084 C65.15894005 2.11604398 62.11777157 2.10931898 58.85058594 2.06933594 C58.14774475 2.05943634 57.44490356 2.04953674 56.72076416 2.03933716 C54.4050225 2.00783036 52.08926035 1.98300771 49.7734375 1.95825195 C48.16489132 1.93767307 46.55635044 1.91667635 44.94781494 1.89527893 C40.7195668 1.84015473 36.49127064 1.79070299 32.26293945 1.74243164 C27.94608296 1.69214604 23.62929598 1.63649686 19.3125 1.58129883 C10.84641299 1.47383534 2.38026772 1.37236428 -6.0859375 1.2746582 C-6.488125 2.1099707 -6.488125 2.1099707 -6.8984375 2.9621582 C-8.0859375 5.2746582 -8.0859375 5.2746582 -9.6361087 7.2550661 C-11.79800657 11.75770099 -11.50120438 15.96630786 -11.47069836 20.9006319 C-11.47584826 21.98864866 -11.48099817 23.07666541 -11.48630413 24.19765237 C-11.49999515 27.8688049 -11.49221786 31.53960372 -11.48466492 35.21076965 C-11.49010047 37.85909415 -11.49672384 40.50739134 -11.50480682 43.15570658 C-11.52001814 48.92659825 -11.52409354 54.69741504 -11.52092934 60.46832466 C-11.51627447 69.04946635 -11.52874395 77.63052304 -11.54475907 86.21164799 C-11.57121082 100.64572935 -11.58372 115.07979151 -11.58832359 129.51389503 C-11.59292811 143.80851307 -11.60370469 158.10310442 -11.62275124 172.3977108 C-11.62393136 173.28601539 -11.62511149 174.17431998 -11.62632738 175.08954288 C-11.63235268 179.600667 -11.6384885 184.11179096 -11.64466689 188.62291487 C-11.68824627 220.58747005 -11.71794657 252.55202459 -11.73950195 284.51660156 C-11.76047636 315.57260089 -11.78772673 346.62858433 -11.82348633 377.68457031 C-11.82458581 378.64160252 -11.82568528 379.59863473 -11.82681808 380.58466791 C-11.83786627 390.1954493 -11.84904219 399.80623054 -11.8603117 409.41701167 C-11.88326673 428.99583634 -11.90536917 448.57466194 -11.92695618 468.15348816 C-11.9279498 469.05372011 -11.92894341 469.95395206 -11.92996714 470.88146377 C-11.99623825 531.01251558 -12.04263367 591.143586 -12.0859375 651.2746582 C-12.7459375 650.9446582 -13.4059375 650.6146582 -14.0859375 650.2746582 C-14.04197884 589.04358635 -13.99432876 527.81251776 -13.92695618 466.58146667 C-13.92596061 465.67569572 -13.92496504 464.76992477 -13.92393931 463.83670621 C-13.90228241 444.15339838 -13.87995983 424.47009135 -13.85695122 404.78678505 C-13.84567238 395.13454955 -13.83454069 385.48231389 -13.82348633 375.83007812 C-13.82238376 374.86954807 -13.8212812 373.90901801 -13.82014522 372.91938098 C-13.78445605 341.76767043 -13.75848961 310.61596095 -13.73754781 279.46423728 C-13.71598199 247.4604496 -13.68464199 215.45668609 -13.64094637 183.4529206 C-13.63478383 178.93597213 -13.62873341 174.41902352 -13.62275124 169.90207481 C-13.62157035 169.01304617 -13.62038947 168.12401753 -13.61917281 167.20804862 C-13.60042769 152.87844759 -13.59203228 138.54885816 -13.58747626 124.21924638 C-13.58267977 109.8244713 -13.56705352 95.4297406 -13.54027184 81.03498933 C-13.52467859 72.47547852 -13.51748965 63.91605519 -13.52216821 55.35653094 C-13.52447355 49.64459974 -13.51599272 43.93275144 -13.49861339 38.22084636 C-13.48901197 34.96250402 -13.48585921 31.70438181 -13.49254187 28.44602654 C-13.49900118 24.94111507 -13.48723661 21.43673372 -13.47069836 17.93186665 C-13.47697505 16.9134076 -13.48325175 15.89494855 -13.48971865 14.8456271 C-13.41390148 6.19375436 -13.41390148 6.19375436 -10.0859375 2.2746582 C-6.36446869 -0.206321 -4.44651155 0.01577254 0 0 Z " fill="#5C0EC9" transform="translate(773.0859375,186.725341796875)"/>
<path d="M0 0 C0.99 0 1.98 0 3 0 C3 0.66 3 1.32 3 2 C2.01 2.495 2.01 2.495 1 3 C1 93.75 1 184.5 1 278 C1.99 278 2.98 278 4 278 C3.67 278.99 3.34 279.98 3 281 C1.35 281 -0.3 281 -2 281 C-3.17852523 267.01153068 -3.09790031 253.06904954 -3.02172852 239.04101562 C-3.01156774 236.44755729 -3.00187607 233.85409708 -2.99261475 231.26063538 C-2.97205331 225.70766863 -2.94765064 220.15472985 -2.92053413 214.60179138 C-2.88133538 206.57347283 -2.84809268 198.545138 -2.81623887 190.51678735 C-2.76438188 177.4869208 -2.70780079 164.45707932 -2.64819336 151.42724609 C-2.59034842 138.78044609 -2.53476286 126.13363943 -2.48217773 113.48681641 C-2.47892802 112.70544015 -2.4756783 111.92406388 -2.4723301 111.11900955 C-2.45603876 107.19852912 -2.43979144 103.2780485 -2.42356598 99.35756779 C-2.2891998 66.90501409 -2.14714348 34.45249837 -2 2 C-1.34 2 -0.68 2 0 2 C0 1.34 0 0.68 0 0 Z " fill="#3C0769" transform="translate(684,272)"/>
<path d="M0 0 C0.33 0 0.66 0 1 0 C1.04559612 31.67005783 1.08100432 63.34010635 1.10213066 95.01018931 C1.10463216 98.7466204 1.1072208 102.48305143 1.10986328 106.21948242 C1.1103879 106.96335857 1.11091252 107.70723472 1.11145304 108.47365256 C1.12016268 120.52847455 1.13593571 132.58327751 1.15430559 144.6380882 C1.17298912 157.00156718 1.18411344 169.36503617 1.18817699 181.72852868 C1.19092527 189.36138101 1.19961468 196.99417959 1.21583293 204.62701537 C1.22762515 210.47358794 1.22891526 216.3201327 1.22621536 222.16671753 C1.22676761 224.56978372 1.2307725 226.97285187 1.23841095 229.37590599 C1.24829971 232.64609141 1.24599112 235.91604317 1.24050903 239.18623352 C1.24633472 240.14634112 1.2521604 241.10644872 1.25816262 242.09565049 C1.25418052 242.96898914 1.25019842 243.84232778 1.24609566 244.74213123 C1.2468551 245.49739497 1.24761454 246.25265871 1.24839699 247.03080922 C1 249 1 249 -1 252 C-4.65283387 253.21761129 -7.99937502 253.13494572 -11.80168152 253.12025452 C-12.60462106 253.12110894 -13.40756059 253.12196337 -14.23483163 253.12284368 C-16.93416477 253.1244951 -19.63343622 253.11898261 -22.33276367 253.11352539 C-24.26421609 253.11324342 -26.19566862 253.11340145 -28.12712097 253.1139679 C-33.37885129 253.11425549 -38.6305589 253.10836493 -43.88228393 253.10139394 C-49.36759181 253.09515403 -54.85290018 253.09455609 -60.33821106 253.09336853 C-70.72916099 253.0902571 -81.12010044 253.08204623 -91.51104575 253.07201904 C-103.33918391 253.06085208 -115.16732257 253.05534598 -126.99546468 253.05032361 C-151.33031561 253.03986348 -175.66515722 253.02226766 -200 253 C-200 252.67 -200 252.34 -200 252 C-177.83002069 251.19836988 -155.69639404 250.87351163 -133.51280975 250.95540047 C-128.40049424 250.97420498 -123.28818473 250.98341785 -118.17584229 250.99131775 C-103.67139618 251.01511261 -89.16699508 251.05173002 -74.66259766 251.09594727 C-66.58170832 251.1204992 -58.50083468 251.13784817 -50.41991353 251.14750665 C-45.34188273 251.15401513 -40.26398594 251.16948998 -35.1860013 251.19182408 C-32.0445627 251.20355873 -28.9031564 251.20692136 -25.76169777 251.20792198 C-24.30965299 251.21006564 -22.85760849 251.21564418 -21.40559196 251.2249527 C-19.42145147 251.23718219 -17.43724112 251.23580134 -15.45306396 251.23377991 C-13.79094187 251.23849351 -13.79094187 251.23849351 -12.09524155 251.24330235 C-8.70471763 250.97678924 -6.09974996 250.40699543 -3 249 C-1.20251221 246.184294 -0.74843437 243.98960488 -0.73828697 240.68155289 C-0.73082148 239.82015678 -0.72335599 238.95876067 -0.71566427 238.07126164 C-0.717599 237.12963068 -0.71953374 236.18799971 -0.7215271 235.21783447 C-0.7128385 233.71200243 -0.7128385 233.71200243 -0.70397437 232.17574954 C-0.68693068 228.80235544 -0.68409408 225.42909779 -0.68115234 222.05566406 C-0.67185719 219.64130822 -0.66168915 217.22695559 -0.65071106 214.81260681 C-0.62902285 209.60976895 -0.61342371 204.40695044 -0.60334396 199.20407867 C-0.58875985 191.68159939 -0.5632238 184.15918866 -0.53501268 176.6367496 C-0.48953981 164.43216762 -0.45292705 152.22757578 -0.421875 140.02294922 C-0.39169148 128.16713732 -0.35734213 116.31134956 -0.31738281 104.45556641 C-0.31492126 103.72480338 -0.31245972 102.99404036 -0.30992357 102.241133 C-0.29754901 98.57511785 -0.28509247 94.90910298 -0.27259517 91.24308825 C-0.16901996 60.82875855 -0.07996659 30.41440147 0 0 Z " fill="#6013D3" transform="translate(727,538)"/>
<path d="M0 0 C0.88899185 -0.00397441 1.77798371 -0.00794881 2.69391471 -0.01204365 C5.67271817 -0.0216681 8.65104689 -0.00984766 11.62983704 0.00190735 C13.76523516 -0.00052051 15.90063215 -0.00423977 18.036026 -0.00915527 C23.83532665 -0.01856694 29.63445862 -0.00913733 35.4337461 0.00417686 C41.49600234 0.01548187 47.55825017 0.01138469 53.62051392 0.00942993 C63.79829164 0.00854686 73.97600277 0.01963185 84.15376282 0.03804016 C95.93437892 0.059225 107.71489758 0.06271412 119.49552888 0.0564782 C130.8155221 0.05079213 142.13548088 0.05642016 153.45546913 0.06765175 C158.27961168 0.07230604 163.10373323 0.07316803 167.92787743 0.0710659 C173.60201407 0.06918813 179.27605091 0.07724737 184.95016479 0.0931263 C187.03758646 0.0973837 189.12501823 0.09820999 191.2124424 0.0954361 C194.0514073 0.09223469 196.89007009 0.10124412 199.72900391 0.11352539 C200.5641034 0.10974607 201.3992029 0.10596674 202.25960845 0.10207289 C207.94569704 0.14589236 207.94569704 0.14589236 210.17402649 2.3742218 C137.57402649 2.3742218 64.97402649 2.3742218 -9.82597351 2.3742218 C-10.15597351 3.3642218 -10.48597351 4.3542218 -10.82597351 5.3742218 C-11.81597351 5.3742218 -12.80597351 5.3742218 -13.82597351 5.3742218 C-13.82597351 4.7142218 -13.82597351 4.0542218 -13.82597351 3.3742218 C-9.45612278 -0.21789761 -5.37839271 -0.04787717 0 0 Z " fill="#34075E" transform="translate(233.8259735107422,689.6257781982422)"/>
<path d="M0 0 C1.875 0.3125 1.875 0.3125 4 1 C6.49236483 4.73854724 6.34060914 7.72767374 6.37109375 12.0625 C6.38012222 12.85019775 6.3891507 13.63789551 6.39845276 14.44946289 C6.41295019 16.11373088 6.42184075 17.77805579 6.42553711 19.44238281 C6.43745886 21.99120482 6.48666479 24.53762473 6.53710938 27.0859375 C6.54657093 28.70311318 6.55380725 30.32030373 6.55859375 31.9375 C6.57812607 32.70006104 6.59765839 33.46262207 6.61778259 34.24829102 C6.59936523 36.40234375 6.59936523 36.40234375 6 40 C3.46508789 42.00390625 3.46508789 42.00390625 1 43 C-0.47729492 42.01757812 -0.47729492 42.01757812 -2 40 C-2.286155 37.1643447 -2.3965575 34.55303509 -2.36328125 31.71875 C-2.36377975 30.9088562 -2.36427826 30.0989624 -2.36479187 29.26452637 C-2.36245258 27.5531163 -2.35273255 25.84170272 -2.33618164 24.13037109 C-2.31258804 21.50977842 -2.31562167 18.89020315 -2.32226562 16.26953125 C-2.31668876 14.60676476 -2.30957883 12.94400256 -2.30078125 11.28125 C-2.30169266 10.49681519 -2.30260406 9.71238037 -2.30354309 8.9041748 C-2.25368827 5.08160354 -2.17016688 3.25525033 0 0 Z " fill="#921CCF" transform="translate(222,608)"/>
<path d="M0 0 C29.04 0 58.08 0 88 0 C88.495 2.475 88.495 2.475 89 5 C83.55311024 10.44688976 68.23793098 8.12194261 60.77612305 8.13949585 C57.80905665 8.13915356 54.84205524 8.13297177 51.875 8.125 C50.86119263 8.1234491 49.84738525 8.12189819 48.80285645 8.12030029 C36.44873277 8.09810083 24.09837057 8.02467404 11.75 7.625 C10.65800293 7.59422363 9.56600586 7.56344727 8.44091797 7.53173828 C7.46525879 7.49290527 6.48959961 7.45407227 5.484375 7.4140625 C4.65647461 7.3826416 3.82857422 7.3512207 2.97558594 7.31884766 C1 7 1 7 -1 5 C-0.67 3.35 -0.34 1.7 0 0 Z M3 1 C2.67 2.32 2.34 3.64 2 5 C29.39 5 56.78 5 85 5 C85 3.68 85 2.36 85 1 C57.94 1 30.88 1 3 1 Z " fill="#23076E" transform="translate(671,877)"/>
<path d="M0 0 C0.33 0 0.66 0 1 0 C1 66.66 1 133.32 1 202 C-3.28778326 204.14389163 -5.26517625 204.24374051 -9.97167969 204.22705078 C-10.6647673 204.22734283 -11.35785492 204.22763489 -12.07194519 204.22793579 C-14.35538392 204.22654608 -16.6384935 204.21100206 -18.921875 204.1953125 C-20.50799379 204.19158109 -22.09411489 204.18873472 -23.68023682 204.18673706 C-27.84940993 204.17911068 -32.01844311 204.15947078 -36.18756104 204.1373291 C-40.44403185 204.11684921 -44.70052534 204.10773076 -48.95703125 204.09765625 C-57.30475163 204.07622391 -65.65235839 204.04210002 -74 204 C-74 203.67 -74 203.34 -74 203 C-73.37820358 202.98969254 -72.75640717 202.97938507 -72.11576843 202.96876526 C-65.5436573 202.85914462 -58.97164161 202.74470835 -52.3996582 202.62768555 C-49.95892365 202.58482622 -47.51816841 202.5431258 -45.07739258 202.50268555 C-33.32400722 202.30723816 -21.57378389 202.1085359 -9.83203125 201.52734375 C-9.0407634 201.49024796 -8.24949554 201.45315216 -7.43424988 201.41493225 C-3.91925468 201.51755984 -3.91925468 201.51755984 -1 200 C-0.88982807 197.42058146 -0.84503709 194.86736134 -0.84178162 192.28697205 C-0.83684364 191.46940715 -0.83190566 190.65184225 -0.82681805 189.80950266 C-0.81136505 187.04870381 -0.80306144 184.28792834 -0.79467773 181.52709961 C-0.78510533 179.55653169 -0.77509564 177.58596586 -0.76467896 175.61540222 C-0.73755469 170.24787728 -0.71658599 164.88034348 -0.69667697 159.51278758 C-0.67486364 153.91000282 -0.64745227 148.3072456 -0.62062073 142.70448303 C-0.57063071 132.08682438 -0.52571537 121.46915049 -0.48259836 110.85146195 C-0.43327979 98.76700721 -0.37834177 86.68258009 -0.32291877 74.59815204 C-0.20900191 49.73212712 -0.10218412 24.86607571 0 0 Z " fill="#851BD5" transform="translate(475,447)"/>
<path d="M0 0 C1.07607513 -0.0076664 1.07607513 -0.0076664 2.17388916 -0.01548767 C4.54569841 -0.02939031 6.91721735 -0.02842664 9.2890625 -0.02612305 C10.9366873 -0.03000922 12.5843111 -0.03434373 14.23193359 -0.03910828 C17.6852544 -0.04657163 21.13847296 -0.04627811 24.59179688 -0.04101562 C29.02065986 -0.03521655 33.44910526 -0.05216175 37.87789917 -0.0753603 C41.28021701 -0.090079 44.6824338 -0.09097197 48.08477783 -0.08785057 C49.71788359 -0.08836458 51.35099488 -0.09361731 52.98406982 -0.10366249 C55.2656993 -0.11597577 57.54650902 -0.10926708 59.828125 -0.09765625 C61.1270166 -0.09828568 62.4259082 -0.0989151 63.76416016 -0.0995636 C66.9140625 0.2746582 66.9140625 0.2746582 68.85693359 1.79792786 C69.20578613 2.28524887 69.55463867 2.77256989 69.9140625 3.2746582 C69.3997467 3.11389297 68.88543091 2.95312775 68.35552979 2.78749084 C65.15894005 2.11604398 62.11777157 2.10931898 58.85058594 2.06933594 C58.14774475 2.05943634 57.44490356 2.04953674 56.72076416 2.03933716 C54.4050225 2.00783036 52.08926035 1.98300771 49.7734375 1.95825195 C48.16489132 1.93767307 46.55635044 1.91667635 44.94781494 1.89527893 C40.7195668 1.84015473 36.49127064 1.79070299 32.26293945 1.74243164 C27.94608296 1.69214604 23.62929598 1.63649686 19.3125 1.58129883 C10.84641299 1.47383534 2.38026772 1.37236428 -6.0859375 1.2746582 C-6.488125 2.1099707 -6.488125 2.1099707 -6.8984375 2.9621582 C-8.0859375 5.2746582 -8.0859375 5.2746582 -9.63523579 7.56603527 C-11.27890564 10.63495138 -11.46833896 12.46728673 -11.48466492 15.92512512 C-11.49720306 17.05108093 -11.50974121 18.17703674 -11.5226593 19.33711243 C-11.52122421 20.56278427 -11.51978912 21.78845612 -11.51831055 23.05126953 C-11.5285022 24.34922455 -11.53869385 25.64717957 -11.54919434 26.98446655 C-11.57674437 30.53573247 -11.58604606 34.08683826 -11.59204841 37.63819718 C-11.60143733 41.35250571 -11.62764112 45.06669488 -11.65205383 48.78092957 C-11.69570833 55.81080886 -11.72426169 62.84066498 -11.74737722 69.87063855 C-11.77443455 77.87550766 -11.81834571 85.88025663 -11.86366594 93.88503993 C-11.95649715 110.3481851 -12.02818481 126.81135181 -12.0859375 143.2746582 C-12.4159375 143.2746582 -12.7459375 143.2746582 -13.0859375 143.2746582 C-13.15601862 125.62883504 -13.20892125 107.98305531 -13.24137402 90.33712482 C-13.25684291 82.14381063 -13.27793282 73.95058291 -13.31225586 65.75732422 C-13.34215757 58.61607642 -13.36151234 51.47489124 -13.36820298 44.33358258 C-13.37211395 40.55229419 -13.38130561 36.77118496 -13.40312767 32.98995399 C-13.42350511 29.43016697 -13.42976883 25.87063274 -13.42526054 22.31079292 C-13.42647809 20.38299459 -13.4426137 18.45522372 -13.459198 16.52749634 C-13.45507401 15.37629807 -13.45095001 14.22509979 -13.44670105 13.03901672 C-13.44946643 12.04071492 -13.45223181 11.04241312 -13.45508099 10.01385975 C-13.01613763 6.75671353 -12.02410151 4.91101816 -10.0859375 2.2746582 C-6.36446869 -0.206321 -4.44651155 0.01577254 0 0 Z " fill="#4D0A7B" transform="translate(773.0859375,186.725341796875)"/>
<path d="M0 0 C1.65 0 3.3 0 5 0 C4.071875 1.299375 4.071875 1.299375 3.125 2.625 C-0.50989589 8.39806995 -1.29593863 13.43564744 -1.2784729 20.16244507 C-1.2842653 20.96794788 -1.2900577 21.77345069 -1.29602563 22.60336268 C-1.31298544 25.29339604 -1.31589867 27.98325741 -1.31884766 30.67333984 C-1.3281486 32.60523904 -1.33831752 34.53713423 -1.34928894 36.46902466 C-1.37658416 41.70816318 -1.39173699 46.94727482 -1.40471697 52.18646574 C-1.42034954 57.66378073 -1.44713938 63.14104085 -1.4727478 68.61831665 C-1.51953329 78.98789142 -1.55627855 89.35747651 -1.58942068 99.72710288 C-1.62764365 111.53358095 -1.67705338 123.34000389 -1.72740483 135.1464355 C-1.83072129 159.43091614 -1.91998267 183.7154322 -2 208 C-2.33 208 -2.66 208 -3 208 C-3.07007478 181.91376973 -3.12298071 155.82755356 -3.15543652 129.74124813 C-3.17090672 117.62898042 -3.19199924 105.51677119 -3.22631836 93.40454102 C-3.25621593 82.84777476 -3.27557389 72.29105086 -3.28226548 61.73424345 C-3.28617711 56.14427261 -3.29537333 50.55442292 -3.31719017 44.96449089 C-3.33756087 39.70243012 -3.34383257 34.44054036 -3.33932304 29.17844391 C-3.34014798 27.24791853 -3.3461101 25.3173874 -3.35761642 23.38689613 C-3.37256962 20.74856102 -3.3689433 18.11086931 -3.36076355 15.47251892 C-3.36950207 14.7108282 -3.3782406 13.94913749 -3.38724393 13.16436523 C-3.34470353 8.07858678 -2.26786497 4.5596189 0 0 Z " fill="#920FBA" transform="translate(266,189)"/>
<path d="M0 0 C0.33 0 0.66 0 1 0 C1.06999244 26.95488746 1.1229402 53.90976136 1.15543652 80.8647213 C1.17092424 93.37957161 1.19205007 105.89436555 1.22631836 118.40917969 C1.25616247 129.31345392 1.27556113 140.21768735 1.28226548 151.12200129 C1.28618622 156.89904685 1.29543986 162.67597562 1.31719017 168.45298386 C1.3374766 173.88492824 1.34384976 179.31670718 1.33932304 184.74868584 C1.34015177 186.74742594 1.34616389 188.7461713 1.35761642 190.74487877 C1.37243797 193.46378264 1.36899176 196.18205339 1.36076355 198.90097046 C1.36950207 199.70057107 1.3782406 200.50017169 1.38724393 201.32400262 C1.36914349 203.52110863 1.36914349 203.52110863 1 207 C-0.485 207.99 -0.485 207.99 -2 209 C-2 207.68 -2 206.36 -2 205 C-1.34 205 -0.68 205 0 205 C0 137.35 0 69.7 0 0 Z " fill="#8F19CF" transform="translate(347,440)"/>
<path d="M0 0 C1.875 0.3125 1.875 0.3125 4 1 C6.52561648 4.78842473 6.25391573 7.78533329 6.1953125 12.16796875 C6.1924826 12.96278152 6.18965271 13.7575943 6.18673706 14.57649231 C6.17554705 17.11364838 6.15044491 19.65045072 6.125 22.1875 C6.11496866 23.90819802 6.10584308 25.62890159 6.09765625 27.34960938 C6.07561161 31.56654243 6.04109006 35.78321125 6 40 C5.01 40.495 5.01 40.495 4 41 C3.67 28.46 3.34 15.92 3 3 C2.01 3.495 2.01 3.495 1 4 C0.0960313 8.66497443 -0.16887988 13.28542486 -0.31640625 18.02734375 C-0.35830078 19.31318359 -0.40019531 20.59902344 -0.44335938 21.92382812 C-0.483157 23.26171625 -0.52286951 24.59960691 -0.5625 25.9375 C-0.60576654 27.30274562 -0.64938321 28.66798018 -0.69335938 30.03320312 C-0.79901153 33.35537652 -0.90111395 36.67761946 -1 40 C-1.33 40 -1.66 40 -2 40 C-2.0494186 34.78557724 -2.08572831 29.57129066 -2.10986328 24.35668945 C-2.11992411 22.58257676 -2.13357422 20.80848065 -2.15087891 19.03442383 C-2.17512378 16.48514716 -2.18648218 13.93608963 -2.1953125 11.38671875 C-2.20563507 10.59287277 -2.21595764 9.79902679 -2.22659302 8.98112488 C-2.2273811 5.11776957 -2.19440369 3.29160554 0 0 Z " fill="#44086E" transform="translate(222,608)"/>
<path d="M0 0 C0.33 0 0.66 0 1 0 C1.08160748 1.89510699 1.13946459 3.79124504 1.1875 5.6875 C1.23970703 7.27111328 1.23970703 7.27111328 1.29296875 8.88671875 C0.96323813 12.39065615 0.08584712 14.19698511 -2 17 C-5.0050583 18.50252915 -8.09256933 18.12992759 -11.38720703 18.11352539 C-12.14827759 18.11367142 -12.90934814 18.11381744 -13.69348145 18.1139679 C-16.21495389 18.11326993 -18.73635292 18.10548294 -21.2578125 18.09765625 C-23.00373291 18.09579166 -24.74965384 18.09436795 -26.49557495 18.09336853 C-31.09545328 18.08954659 -35.69530014 18.07971905 -40.29516602 18.06866455 C-44.9871376 18.05844349 -49.67911425 18.05386942 -54.37109375 18.04882812 C-63.58074301 18.03809651 -72.79036889 18.02102394 -82 18 C-82 17.67 -82 17.34 -82 17 C-68.97744185 16.31006314 -55.99250171 15.95121669 -42.953125 16.0390625 C-41.38130211 16.04791473 -41.38130211 16.04791473 -39.77772522 16.0569458 C-34.47626966 16.0888626 -29.17578798 16.13885083 -23.87475586 16.21289062 C-21.88916447 16.2284258 -19.90356877 16.24342289 -17.91796875 16.2578125 C-17.00642029 16.27647369 -16.09487183 16.29513489 -15.15570068 16.31436157 C-10.01581411 16.33490367 -6.43263405 15.91964601 -2 13 C-0.71553081 10.43106162 -0.67022856 8.23423663 -0.4375 5.375 C-0.31181641 3.87066406 -0.31181641 3.87066406 -0.18359375 2.3359375 C-0.12300781 1.56507813 -0.06242188 0.79421875 0 0 Z " fill="#3E0FD4" transform="translate(844,905)"/>
<path d="M0 0 C0.33 0 0.66 0 1 0 C1 1.98 1 3.96 1 6 C-2.6462078 8.29785498 -5.72128966 8.24212309 -9.97167969 8.22705078 C-10.6647673 8.22734283 -11.35785492 8.22763489 -12.07194519 8.22793579 C-14.35538392 8.22654608 -16.6384935 8.21100206 -18.921875 8.1953125 C-20.50799379 8.19158109 -22.09411489 8.18873472 -23.68023682 8.18673706 C-27.84940993 8.17911068 -32.01844311 8.15947078 -36.18756104 8.1373291 C-40.44403185 8.11684921 -44.70052534 8.10773076 -48.95703125 8.09765625 C-57.30475163 8.07622391 -65.65235839 8.04210002 -74 8 C-74 7.67 -74 7.34 -74 7 C-73.37820358 6.98969254 -72.75640717 6.97938507 -72.11576843 6.96876526 C-65.5436573 6.85914462 -58.97164161 6.74470835 -52.3996582 6.62768555 C-49.95892365 6.58482622 -47.51816841 6.5431258 -45.07739258 6.50268555 C-30.69820279 6.26357358 -16.35441456 5.89735736 -2 5 C-1.34 3.35 -0.68 1.7 0 0 Z " fill="#6810C0" transform="translate(475,643)"/>
<path d="M0 0 C0.66 1.32 1.32 2.64 2 4 C0 7 0 7 -3 8 C-4.76408128 8.08799471 -6.53133766 8.11764257 -8.29760742 8.11352539 C-9.37850143 8.11344986 -10.45939545 8.11337433 -11.57304382 8.11329651 C-12.73874405 8.10813522 -13.90444427 8.10297394 -15.10546875 8.09765625 C-16.29981033 8.0962413 -17.49415192 8.09482635 -18.72468567 8.09336853 C-22.54564908 8.0877635 -26.36655425 8.07521011 -30.1875 8.0625 C-32.77538978 8.05748565 -35.36328048 8.05292263 -37.95117188 8.04882812 C-44.30080118 8.03779243 -50.65039643 8.02104936 -57 8 C-54.02422295 6.29041104 -51.93077916 5.7583081 -48.51025391 5.8046875 C-47.18835556 5.81459717 -47.18835556 5.81459717 -45.8397522 5.82470703 C-44.8948996 5.84130371 -43.950047 5.85790039 -42.9765625 5.875 C-41.99763031 5.88257324 -41.01869812 5.89014648 -40.01010132 5.89794922 C-35.8261875 5.93061163 -31.64266575 5.98681617 -27.45898438 6.04101562 C-24.40236222 6.07724508 -21.34580409 6.10139848 -18.2890625 6.125 C-16.87785629 6.14989502 -16.87785629 6.14989502 -15.43814087 6.17529297 C-10.58006957 6.21145303 -6.50448956 6.07442414 -2 4 C-0.57944932 1.99863756 -0.57944932 1.99863756 0 0 Z " fill="#5210CD" transform="translate(726,783)"/>
<path d="M0 0 C0.33 0 0.66 0 1 0 C1.06941478 9.74419823 1.12276776 19.48833795 1.15543652 29.23273277 C1.17111343 33.75713184 1.19238839 38.28136214 1.22631836 42.80566406 C1.25883996 47.16932465 1.27683774 51.53282261 1.28463173 55.896595 C1.29018824 57.56403795 1.30103834 59.23147169 1.31719017 60.89884567 C1.33886932 63.22882289 1.34197101 65.55812227 1.34057617 67.88818359 C1.351362 68.58229843 1.36214783 69.27641327 1.3732605 69.99156189 C1.36076355 71.91220093 1.36076355 71.91220093 1 75 C-0.485 75.99 -0.485 75.99 -2 77 C-2 75.68 -2 74.36 -2 73 C-1.34 73 -0.68 73 0 73 C0 48.91 0 24.82 0 0 Z " fill="#8518D0" transform="translate(347,572)"/>
<path d="M0 0 C0.33 0 0.66 0 1 0 C1.16867591 6.8683172 1.32848067 13.73680014 1.48217773 20.60546875 C1.53548183 22.94112805 1.5908017 25.27674226 1.64819336 27.61230469 C1.73042824 30.97320843 1.80536554 34.33420865 1.87890625 37.6953125 C1.90594131 38.73615997 1.93297638 39.77700745 1.96083069 40.84939575 C2.06025742 45.70075266 2.05564444 50.23005104 1 55 C-0.32 55 -1.64 55 -3 55 C-3 54.34 -3 53.68 -3 53 C-2.01 52.505 -2.01 52.505 -1 52 C-0.67 34.84 -0.34 17.68 0 0 Z " fill="#6013CE" transform="translate(643,651)"/>
<path d="M0 0 C0.33 0 0.66 0 1 0 C1.08160748 1.89510699 1.13946459 3.79124504 1.1875 5.6875 C1.23970703 7.27111328 1.23970703 7.27111328 1.29296875 8.88671875 C0.96323813 12.39065615 0.08584712 14.19698511 -2 17 C-4.88415883 18.44207941 -7.41721528 18.09394887 -10.625 18.0625 C-11.81351563 18.05347656 -13.00203125 18.04445313 -14.2265625 18.03515625 C-15.14179687 18.02355469 -16.05703125 18.01195312 -17 18 C-14.23200195 16.45535823 -12.15466342 15.78519775 -9 15.625 C-6.31594203 15.30511227 -4.96756062 14.98170086 -2.5625 13.625 C-0.04965453 9.40341962 -0.16662863 4.83223025 0 0 Z " fill="#370EC6" transform="translate(844,905)"/>
<path d="M0 0 C6.6 0 13.2 0 20 0 C20 0.33 20 0.66 20 1 C11.585 1.495 11.585 1.495 3 2 C2.67 3.32 2.34 4.64 2 6 C3.65 6 5.3 6 7 6 C7 6.33 7 6.66 7 7 C4.125 7.125 4.125 7.125 1 7 C0.34 6.34 -0.32 5.68 -1 5 C-0.67 3.35 -0.34 1.7 0 0 Z " fill="#3509A5" transform="translate(671,877)"/>
<path d="M0 0 C2.625 -0.1875 2.625 -0.1875 5 0 C4.071875 1.299375 4.071875 1.299375 3.125 2.625 C1.15345216 5.75628186 0.01033009 8.46384469 -1 12 C-1.66 11.67 -2.32 11.34 -3 11 C-2.25 3.375 -2.25 3.375 0 0 Z " fill="#9317A6" transform="translate(266,189)"/>
<path d="M0 0 C4.95 0 9.9 0 15 0 C15.33 1.65 15.66 3.3 16 5 C14 7 14 7 11.375 7.125 C10.59125 7.08375 9.8075 7.0425 9 7 C9.99 6.67 10.98 6.34 12 6 C12 4.68 12 3.36 12 2 C8.04 1.67 4.08 1.34 0 1 C0 0.67 0 0.34 0 0 Z " fill="#370AB7" transform="translate(744,877)"/>
<path d="M0 0 C1.20849609 0.00644531 2.41699219 0.01289062 3.66210938 0.01953125 C5.55606445 0.04466797 5.55606445 0.04466797 7.48828125 0.0703125 C8.76251953 0.07933594 10.03675781 0.08835937 11.34960938 0.09765625 C14.50018752 0.12125609 17.65039108 0.15418056 20.80078125 0.1953125 C20.80078125 0.5253125 20.80078125 0.8553125 20.80078125 1.1953125 C12.22078125 1.1953125 3.64078125 1.1953125 -5.19921875 1.1953125 C-5.52921875 2.1853125 -5.85921875 3.1753125 -6.19921875 4.1953125 C-7.18921875 4.1953125 -8.17921875 4.1953125 -9.19921875 4.1953125 C-9.19921875 3.5353125 -9.19921875 2.8753125 -9.19921875 2.1953125 C-5.6590865 -0.16477567 -4.1879992 -0.03932394 0 0 Z " fill="#640EA9" transform="translate(229.19921875,690.8046875)"/>
<path d="M0 0 C0.33 0 0.66 0 1 0 C1.04254356 1.99954746 1.04080783 4.00041636 1 6 C0 7 0 7 -2.04125977 7.11352539 C-2.91580811 7.10828857 -3.79035645 7.10305176 -4.69140625 7.09765625 C-5.63564453 7.09443359 -6.57988281 7.09121094 -7.55273438 7.08789062 C-8.54595703 7.07951172 -9.53917969 7.07113281 -10.5625 7.0625 C-11.55958984 7.05798828 -12.55667969 7.05347656 -13.58398438 7.04882812 C-16.05604849 7.03700007 -18.52799518 7.02051849 -21 7 C-21 6.67 -21 6.34 -21 6 C-14.73 5.67 -8.46 5.34 -2 5 C-1.34 3.35 -0.68 1.7 0 0 Z " fill="#7217C5" transform="translate(475,643)"/>
<path d="M0 0 C0.66 0 1.32 0 2 0 C2.18451025 12.66970387 2.18451025 12.66970387 1 18 C-0.32 18 -1.64 18 -3 18 C-3 17.34 -3 16.68 -3 16 C-2.34 15.67 -1.68 15.34 -1 15 C-0.68758629 12.45058627 -0.48696579 9.99638487 -0.375 7.4375 C-0.33632813 6.72658203 -0.29765625 6.01566406 -0.2578125 5.28320312 C-0.16328217 3.52257575 -0.08054183 1.76132272 0 0 Z " fill="#520FB5" transform="translate(643,688)"/>
<path d="M0 0 C0.66 1.32 1.32 2.64 2 4 C1.01 5.485 1.01 5.485 0 7 C-1.9453125 7.29296875 -1.9453125 7.29296875 -4.125 7.1875 C-5.40375 7.125625 -6.6825 7.06375 -8 7 C-8 6.67 -8 6.34 -8 6 C-7.05125 5.7525 -6.1025 5.505 -5.125 5.25 C-1.91306809 4.3142923 -1.91306809 4.3142923 -0.625 1.875 C-0.41875 1.25625 -0.2125 0.6375 0 0 Z " fill="#3A0C96" transform="translate(726,783)"/>
<path d="M0 0 C0.33 0 0.66 0 1 0 C1.08074203 2.62561109 1.1403623 5.24875676 1.1875 7.875 C1.22520508 8.99455078 1.22520508 8.99455078 1.26367188 10.13671875 C1.29296875 12.3046875 1.29296875 12.3046875 1 16 C0.01 16.66 -0.98 17.32 -2 18 C-2 16.68 -2 15.36 -2 14 C-1.34 14 -0.68 14 0 14 C0 9.38 0 4.76 0 0 Z " fill="#6A13AC" transform="translate(347,631)"/>
<path d="M0 0 C0.66 0.33 1.32 0.66 2 1 C1.38125 1.5775 0.7625 2.155 0.125 2.75 C-1.81347053 4.80249821 -2.90014249 6.43366582 -4 9 C-4.88492145 6.52221994 -5.11637742 5.33943414 -4.25 2.8125 C-3 1 -3 1 0 0 Z " fill="#7312A8" transform="translate(765,189)"/>
</svg>
